<?xml version="1.0" encoding="UTF-8" standalone="no"?>
<!-- Created with Inkscape (http://www.inkscape.org/) -->

<svg
   version="1.1"
   id="svg2"
   xml:space="preserve"
   width="285.80798"
   height="103.7864"
   viewBox="0 0 285.80798 103.7864"
   sodipodi:docname="65020d9db891be993f11bfb4de033709.eps"
   xmlns:inkscape="http://www.inkscape.org/namespaces/inkscape"
   xmlns:sodipodi="http://sodipodi.sourceforge.net/DTD/sodipodi-0.dtd"
   xmlns="http://www.w3.org/2000/svg"
   xmlns:svg="http://www.w3.org/2000/svg"><defs
     id="defs6" /><sodipodi:namedview
     id="namedview4"
     pagecolor="#ffffff"
     bordercolor="#666666"
     borderopacity="1.0"
     inkscape:pageshadow="2"
     inkscape:pageopacity="0.0"
     inkscape:pagecheckerboard="0" /><g
     id="g8"
     inkscape:groupmode="layer"
     inkscape:label="ink_ext_XXXXXX"
     transform="matrix(1.3333333,0,0,-1.3333333,0,103.7864)"><g
       id="g10"
       transform="scale(0.1)"><path
         d="m 1139.79,424.16 v 93.301 h -86.7 V 424.16 h -32.39 v 213.594 h 32.39 v -91.199 h 86.7 v 91.199 h 32.4 V 424.16 h -32.4"
         style="fill:#0979b8;fill-opacity:1;fill-rule:nonzero;stroke:none"
         id="path12" /><path
         d="m 1228,424.16 v 213.594 h 136.49 v -29.102 h -104.1 v -62.39 h 88.8 v -28.801 h -88.8 v -64.199 h 104.1 V 424.16 H 1228"
         style="fill:#0979b8;fill-opacity:1;fill-rule:nonzero;stroke:none"
         id="path14" /><path
         d="m 1408.89,424.16 v 213.594 h 32.4 V 424.16 h -32.4"
         style="fill:#0979b8;fill-opacity:1;fill-rule:nonzero;stroke:none"
         id="path16" /><path
         d="m 1563.69,589.453 -33.3,-94.793 h 65.7 z m 56.09,-165.293 -14.69,42.903 h -84.3 l -14.7,-42.903 h -34.5 l 78.3,213.594 h 26.09 l 78.3,-213.594 h -34.5"
         style="fill:#0979b8;fill-opacity:1;fill-rule:nonzero;stroke:none"
         id="path18" /><path
         d="m 1676.78,493.156 v 28.504 h 87.6 v -28.504 h -87.6"
         style="fill:#0979b8;fill-opacity:1;fill-rule:nonzero;stroke:none"
         id="path20" /><path
         d="m 1844.48,608.652 v -65.097 h 88.8 v -29.102 h -88.8 V 424.16 h -32.39 v 213.594 h 136.49 v -29.102 h -104.1"
         style="fill:#0979b8;fill-opacity:1;fill-rule:nonzero;stroke:none"
         id="path22" /><path
         d="m 2067.98,608.652 h -48 v -66.894 h 48 c 21.6,0 36.3,12.297 36.3,33.301 0,20.996 -14.7,33.593 -36.3,33.593 z m 37.5,-184.492 -45,90 h -40.5 v -90 h -32.39 v 213.594 h 82.79 c 40.5,0 66.3,-26.102 66.3,-62.402 0,-30.594 -18.61,-50.098 -42.6,-56.7 l 49.2,-94.492 h -37.8"
         style="fill:#0979b8;fill-opacity:1;fill-rule:nonzero;stroke:none"
         id="path24" /><path
         d="m 1139.79,141.66 v 93.301 h -86.7 V 141.66 h -32.39 v 213.594 h 32.39 v -91.199 h 86.7 v 91.199 h 32.4 V 141.66 h -32.4"
         style="fill:#aa9f93;fill-opacity:1;fill-rule:nonzero;stroke:none"
         id="path26" /><path
         d="M 1330.29,326.152 V 141.66 h -32.4 v 184.492 h -58.8 v 29.102 h 150 v -29.102 h -58.8"
         style="fill:#aa9f93;fill-opacity:1;fill-rule:nonzero;stroke:none"
         id="path28" /><path
         d="m 1509.97,306.953 -33.3,-94.793 h 65.7 z m 56.1,-165.293 -14.7,42.903 h -84.3 l -14.69,-42.903 h -34.5 l 78.29,213.594 h 26.1 l 78.29,-213.594 h -34.49"
         style="fill:#aa9f93;fill-opacity:1;fill-rule:nonzero;stroke:none"
         id="path30" /><path
         d="m 1676.78,210.656 v 28.504 h 87.59 v -28.504 h -87.59"
         style="fill:#aa9f93;fill-opacity:1;fill-rule:nonzero;stroke:none"
         id="path32" /><path
         d="m 1844.76,326.152 v -65.097 h 88.8 v -29.102 h -88.8 V 141.66 h -32.39 v 213.594 h 136.49 v -29.102 h -104.1"
         style="fill:#aa9f93;fill-opacity:1;fill-rule:nonzero;stroke:none"
         id="path34" /><path
         d="m 2068.26,326.152 h -48 v -66.894 h 48 c 21.6,0 36.3,12.297 36.3,33.301 0,20.996 -14.7,33.593 -36.3,33.593 z m 37.5,-184.492 -44.99,90 h -40.51 v -90 h -32.39 v 213.594 h 82.79 c 40.5,0 66.3,-26.102 66.3,-62.402 0,-30.594 -18.59,-50.098 -42.6,-56.7 l 49.2,-94.492 h -37.8"
         style="fill:#aa9f93;fill-opacity:1;fill-rule:nonzero;stroke:none"
         id="path36" /><path
         d="m 526.176,710 v 23.664 C 341.426,717.707 195.398,564.539 190.723,376.82 h 23.629 c 2.328,88.391 37.734,171.168 100.507,233.942 57.383,57.383 131.493,91.945 211.317,99.238"
         style="fill:#aa9f93;fill-opacity:1;fill-rule:nonzero;stroke:none"
         id="path38" /><path
         d="M 817.969,627.473 C 755.188,690.254 673.676,727.414 586.055,733.98 v -23.699 c 81.308,-6.508 156.886,-41.211 215.199,-99.519 64.961,-64.961 100.734,-151.328 100.734,-243.199 0,-189.637 -154.293,-343.9263 -343.933,-343.9263 -91.563,0 -177.649,35.5547 -242.535,100.1093 h -32.442 c 4.863,-5.476 9.852,-10.867 15.074,-16.086 C 367.574,38.2344 459.883,0 558.055,0 c 98.183,0 190.48,38.2344 259.914,107.66 69.414,69.426 107.648,161.731 107.648,259.903 0,98.179 -38.234,190.484 -107.648,259.91"
         style="fill:#aa9f93;fill-opacity:1;fill-rule:nonzero;stroke:none"
         id="path40" /><path
         d="m 784.301,168.32 h -40.707 l 23.14,93.004 -53.722,-6.195 V 424.156 H 687.281 V 168.32 H 406.918 v 29.66 L 119.891,179.617 v -9.808 l 17.093,-1.489 H 1.18359 0 v -1.175 -24.114 -1.176 H 1.18359 784.301 785.48 v 1.176 24.114 1.175 h -1.179"
         style="fill:#0979b8;fill-opacity:1;fill-rule:evenodd;stroke:none"
         id="path42" /><path
         d="M 409,424.156 H 333.418 L 75.6875,235.469 H 120.383 L 409,424.156"
         style="fill:#0979b8;fill-opacity:1;fill-rule:evenodd;stroke:none"
         id="path44" /><path
         d="m 434.066,516.078 h 5.211 v 4.313 c 0.086,0.105 0.184,0.214 0.332,0.371 8.442,8.441 50.293,20.332 116.871,20.332 66.583,0 108.43,-11.891 116.875,-20.332 0.149,-0.157 0.25,-0.266 0.336,-0.371 v -4.313 h 5.2 11.437 5.199 v 5.207 c 0,5.426 -2.257,10.445 -6.734,14.91 -9.023,9.028 -29.082,16.282 -56.137,20.946 -6.652,5.375 -23.515,8.839 -42.945,10.629 h 2.352 5.195 v 5.191 c 0,4.113 -1.875,8.086 -5.289,11.18 -6.012,5.468 -16.141,7.789 -24.364,8.765 v 180.301 5.191 h -5.203 -12.589 -5.196 v -5.191 -180.254 c -15.808,-1.816 -29.656,-7.707 -29.656,-19.992 v -5.191 h 5.199 2.86 c -16.661,-1.504 -34.485,-4.543 -42.336,-10.637 -32.641,-5.403 -63.246,-15.801 -63.246,-35.848 v -5.207 h 5.191 11.437"
         style="fill:#0979b8;fill-opacity:1;fill-rule:evenodd;stroke:none"
         id="path46" /><path
         d="M 406.918,389.359 119.891,223.887 v -10.176 l 287.027,122.144 v 53.504"
         style="fill:#0979b8;fill-opacity:1;fill-rule:evenodd;stroke:none"
         id="path48" /><path
         d="M 406.918,320.609 119.891,207.035 v -6.613 l 287.027,74.551 v 45.636"
         style="fill:#0979b8;fill-opacity:1;fill-rule:evenodd;stroke:none"
         id="path50" /><path
         d="m 119.891,187.035 287.027,26.942 v 45.265 L 119.891,193.27 v -6.235"
         style="fill:#0979b8;fill-opacity:1;fill-rule:nonzero;stroke:none"
         id="path52" /><path
         d="m 647.512,501.926 c 0.011,0.148 0.051,0.297 0.051,0.445 0,10.758 -40.782,19.477 -91.09,19.477 -50.301,0 -91.094,-8.719 -91.094,-19.477 v -31.953 c 25.894,9.047 77.879,9.645 90.922,9.645 13.09,0 65.422,-0.598 91.211,-9.747 v 31.61"
         style="fill:#0979b8;fill-opacity:1;fill-rule:nonzero;stroke:none"
         id="path54" /><path
         d="m 647.512,431.949 v 24.117 c -9.918,4.395 -40.535,10.411 -91.211,10.411 -50.203,0 -80.707,-5.907 -90.922,-10.286 v -24.242 -11.535 c 24.562,7.59 72.789,8.352 90.734,8.352 18.106,0 67.051,-0.77 91.399,-8.551 v 11.734"
         style="fill:#0979b8;fill-opacity:1;fill-rule:evenodd;stroke:none"
         id="path56" /><path
         d="m 647.512,395.43 v 10.851 c -9.91,3.793 -40.324,8.903 -91.399,8.903 -50.008,0 -80.183,-4.891 -90.734,-8.661 V 395.43 370.488 c 23.254,6.141 68.031,6.977 90.547,6.977 22.84,0 68.656,-0.852 91.586,-7.25 v 25.215"
         style="fill:#0979b8;fill-opacity:1;fill-rule:evenodd;stroke:none"
         id="path58" /><path
         d="m 647.512,325.012 v 31.508 c -10.09,3.14 -40.715,7.375 -91.586,7.375 -49.246,0 -79.492,-3.965 -90.547,-7.063 v -31.82 -4.332 c 21.773,4.636 63.047,5.5 90.359,5.5 27.891,0 70.422,-0.895 91.774,-5.813 v 4.645"
         style="fill:#0979b8;fill-opacity:1;fill-rule:evenodd;stroke:none"
         id="path60" /><path
         d="m 647.512,288.492 v 18.383 c -11.157,2.703 -44.34,5.727 -91.774,5.727 -45.609,0 -78.004,-2.797 -90.359,-5.422 v -2.75 -15.938 -17.504 c 21.516,3.301 62.992,3.895 90.164,3.895 27.965,0 71.066,-0.633 91.969,-4.192 v 17.801"
         style="fill:#0979b8;fill-opacity:1;fill-rule:nonzero;stroke:none"
         id="path62" /><path
         d="m 556.473,216.137 c 34.195,0 62.172,-0.809 77.492,-1.852 1.683,-0.07 6.957,-0.347 10.676,-1.047 0.554,-0.097 1.007,-0.187 1.343,-0.293 0.586,-0.148 1.094,-0.304 1.508,-0.484 v 2.398 h 0.02 v 37.11 5.265 c -11.571,1.934 -44.703,4.071 -91.969,4.071 -44.93,0 -77.145,-1.934 -90.164,-3.789 v -5.547 -38.324 -1.036 c 0.691,0.215 1.625,0.411 2.641,0.582 0.918,0.164 2.187,0.336 3.761,0.5 2.324,0.27 4.285,0.399 4.285,0.399 v -0.004 c 14.508,1.133 43.914,2.051 80.407,2.051"
         style="fill:#0979b8;fill-opacity:1;fill-rule:nonzero;stroke:none"
         id="path64" /></g></g></svg>
