<?xml version="1.0" encoding="UTF-8" standalone="no"?>
<!-- Created with Inkscape (http://www.inkscape.org/) -->

<svg
   version="1.1"
   id="svg2"
   xml:space="preserve"
   width="426.07333"
   height="54.032799"
   viewBox="0 0 426.07334 54.032799"
   sodipodi:docname="8abfdaad8ee40dc8e2f8d26c899e4193.eps"
   xmlns:inkscape="http://www.inkscape.org/namespaces/inkscape"
   xmlns:sodipodi="http://sodipodi.sourceforge.net/DTD/sodipodi-0.dtd"
   xmlns="http://www.w3.org/2000/svg"
   xmlns:svg="http://www.w3.org/2000/svg"><defs
     id="defs6" /><sodipodi:namedview
     id="namedview4"
     pagecolor="#ffffff"
     bordercolor="#666666"
     borderopacity="1.0"
     inkscape:pageshadow="2"
     inkscape:pageopacity="0.0"
     inkscape:pagecheckerboard="0" /><g
     id="g8"
     inkscape:groupmode="layer"
     inkscape:label="ink_ext_XXXXXX"
     transform="matrix(1.3333333,0,0,-1.3333333,0,54.032799)"><g
       id="g10"
       transform="scale(0.1)"><path
         d="m 273.938,369.637 v 12.32 C 177.754,373.652 101.727,293.906 99.293,196.176 h 12.301 c 1.211,46.019 19.648,89.113 52.328,121.797 29.879,29.875 68.457,47.867 110.016,51.664"
         style="fill:#aa9f93;fill-opacity:1;fill-rule:nonzero;stroke:none"
         id="path12" /><path
         d="m 425.848,326.672 c -32.688,32.683 -75.121,52.031 -120.739,55.449 v -12.332 c 42.329,-3.394 81.676,-21.457 112.036,-51.816 33.82,-33.821 52.441,-78.785 52.441,-126.614 0,-98.7262 -80.32,-179.0582 -179.055,-179.0582 -47.664,0 -92.484,18.5117 -126.265,52.125 h -16.887 c 2.527,-2.8477 5.129,-5.6524 7.844,-8.3789 C 191.363,19.9063 239.426,0 290.531,0 c 51.117,0 99.172,19.9063 135.317,56.0469 36.14,36.1484 56.05,84.1991 56.05,135.3121 0,51.114 -19.91,99.172 -56.05,135.313"
         style="fill:#aa9f93;fill-opacity:1;fill-rule:nonzero;stroke:none"
         id="path14" /><path
         d="m 408.316,87.6328 h -21.187 l 12.051,48.4102 -27.977,-3.227 v 88.008 h -13.39 V 87.6328 H 211.852 V 103.074 L 62.418,93.5156 v -5.1133 l 8.9023,-0.7695 H 0.617188 0 V 87.0156 74.4609 73.8477 H 0.617188 408.316 h 0.618 v 0.6132 12.5547 0.6172 h -0.618"
         style="fill:#0979b8;fill-opacity:1;fill-rule:evenodd;stroke:none"
         id="path16" /><path
         d="M 212.93,220.824 H 173.582 L 39.4063,122.59 H 62.6719 L 212.93,220.824"
         style="fill:#0979b8;fill-opacity:1;fill-rule:evenodd;stroke:none"
         id="path18" /><path
         d="m 225.984,268.68 h 2.707 v 2.242 c 0.047,0.055 0.094,0.113 0.176,0.191 4.395,4.395 26.18,10.59 60.848,10.59 34.664,0 56.449,-6.195 60.844,-10.59 0.078,-0.078 0.129,-0.136 0.171,-0.191 v -2.242 h 2.711 5.954 2.707 v 2.707 c 0,2.828 -1.176,5.441 -3.5,7.765 -4.704,4.703 -15.145,8.477 -29.231,10.903 -3.465,2.797 -12.246,4.601 -22.355,5.535 h 1.218 2.711 v 2.699 c 0,2.145 -0.98,4.215 -2.754,5.824 -3.128,2.848 -8.41,4.055 -12.687,4.563 v 93.867 2.703 h -2.707 -6.551 -2.707 v -2.703 -93.844 c -8.23,-0.941 -15.441,-4.011 -15.441,-10.41 v -2.699 h 2.707 1.488 c -8.672,-0.785 -17.953,-2.363 -22.043,-5.539 -16.992,-2.809 -32.93,-8.227 -32.93,-18.664 v -2.707 h 2.707 5.957"
         style="fill:#0979b8;fill-opacity:1;fill-rule:evenodd;stroke:none"
         id="path20" /><path
         d="M 211.852,202.707 62.418,116.559 v -5.305 l 149.434,63.59 v 27.863"
         style="fill:#0979b8;fill-opacity:1;fill-rule:evenodd;stroke:none"
         id="path22" /><path
         d="M 211.852,166.918 62.418,107.777 v -3.433 l 149.434,38.812 v 23.762"
         style="fill:#0979b8;fill-opacity:1;fill-rule:evenodd;stroke:none"
         id="path24" /><path
         d="m 62.418,97.3711 149.434,14.0269 v 23.571 L 62.418,100.617 v -3.2459"
         style="fill:#0979b8;fill-opacity:1;fill-rule:nonzero;stroke:none"
         id="path26" /><path
         d="m 337.105,261.309 c 0.008,0.078 0.028,0.156 0.028,0.234 0,5.602 -21.231,10.137 -47.422,10.137 -26.195,0 -47.426,-4.535 -47.426,-10.137 V 244.91 c 13.481,4.703 40.543,5.012 47.332,5.012 6.821,0 34.059,-0.309 47.488,-5.07 v 16.457"
         style="fill:#0979b8;fill-opacity:1;fill-rule:nonzero;stroke:none"
         id="path28" /><path
         d="m 337.105,224.883 v 12.555 c -5.167,2.285 -21.101,5.414 -47.488,5.414 -26.137,0 -42.015,-3.067 -47.332,-5.352 v -12.617 -6.012 c 12.785,3.953 37.891,4.352 47.235,4.352 9.429,0 34.91,-0.399 47.585,-4.453 v 6.113"
         style="fill:#0979b8;fill-opacity:1;fill-rule:evenodd;stroke:none"
         id="path30" /><path
         d="m 337.105,205.863 v 5.653 c -5.16,1.972 -20.996,4.636 -47.585,4.636 -26.028,0 -41.743,-2.55 -47.235,-4.511 v -5.778 -12.984 c 12.106,3.199 35.418,3.637 47.141,3.637 11.894,0 35.742,-0.442 47.679,-3.774 v 13.121"
         style="fill:#0979b8;fill-opacity:1;fill-rule:evenodd;stroke:none"
         id="path32" /><path
         d="m 337.105,169.199 v 16.41 c -5.253,1.629 -21.195,3.84 -47.679,3.84 -25.637,0 -41.391,-2.066 -47.141,-3.672 v -16.578 -2.254 c 11.332,2.422 32.824,2.864 47.043,2.864 14.524,0 36.664,-0.465 47.777,-3.016 v 2.406"
         style="fill:#0979b8;fill-opacity:1;fill-rule:evenodd;stroke:none"
         id="path34" /><path
         d="m 337.105,150.191 v 9.575 c -5.808,1.402 -23.085,2.976 -47.777,2.976 -23.746,0 -40.613,-1.445 -47.043,-2.816 v -1.43 -8.305 -9.113 c 11.195,1.723 32.793,2.031 46.938,2.031 14.558,0 37,-0.328 47.882,-2.179 v 9.261"
         style="fill:#0979b8;fill-opacity:1;fill-rule:nonzero;stroke:none"
         id="path36" /><path
         d="m 289.711,112.527 c 17.801,0 32.367,-0.422 40.344,-0.968 0.875,-0.032 3.617,-0.176 5.554,-0.543 0.293,-0.055 0.528,-0.098 0.7,-0.153 0.304,-0.078 0.574,-0.164 0.785,-0.25 v 1.25 h 0.011 v 19.317 2.746 c -6.023,1 -23.273,2.117 -47.882,2.117 -23.387,0 -40.16,-1.012 -46.938,-1.984 v -2.879 -19.957 -0.535 c 0.356,0.109 0.844,0.214 1.375,0.3 0.477,0.09 1.137,0.184 1.957,0.266 1.215,0.133 2.235,0.207 2.235,0.207 v -0.012 c 7.55,0.602 22.859,1.078 41.859,1.078"
         style="fill:#0979b8;fill-opacity:1;fill-rule:nonzero;stroke:none"
         id="path38" /><path
         d="M 589.32,73.5469 V 110.84 H 554.656 V 73.5469 h -12.953 v 85.3911 h 12.953 V 122.48 h 34.664 v 36.458 h 12.95 V 73.5469 h -12.95"
         style="fill:#aa9f93;fill-opacity:1;fill-rule:nonzero;stroke:none"
         id="path40" /><path
         d="m 655.926,120.684 c -2.281,2.277 -5.395,3.476 -8.996,3.476 -3.598,0 -6.594,-1.199 -8.875,-3.476 -3.715,-3.719 -4.2,-10.079 -4.2,-16.68 0,-6.5899 0.485,-12.9493 4.2,-16.6681 2.281,-2.2773 5.277,-3.5937 8.875,-3.5937 3.601,0 6.715,1.3164 8.996,3.5937 3.715,3.7188 4.199,10.0782 4.199,16.6681 0,6.601 -0.484,12.961 -4.199,16.68 z m 9.234,-40.6645 c -3.957,-4.0703 -9.953,-7.1953 -18.23,-7.1953 -8.274,0 -14.153,3.125 -18.11,7.1953 -5.757,5.9961 -7.195,13.6719 -7.195,23.9845 0,10.195 1.438,17.871 7.195,23.867 3.957,4.082 9.836,7.199 18.11,7.199 8.277,0 14.273,-3.117 18.23,-7.199 5.758,-5.996 7.195,-13.672 7.195,-23.867 0,-10.3126 -1.437,-17.9884 -7.195,-23.9845"
         style="fill:#aa9f93;fill-opacity:1;fill-rule:nonzero;stroke:none"
         id="path42" /><path
         d="m 714.25,72.8242 c -13.672,0 -27.105,8.3985 -27.105,31.1798 0,22.793 13.433,31.066 27.105,31.066 8.395,0 14.273,-2.394 20.031,-8.515 l -8.394,-8.157 c -3.84,4.2 -6.836,5.762 -11.637,5.762 -4.676,0 -8.633,-1.922 -11.273,-5.398 -2.637,-3.36 -3.598,-7.676 -3.598,-14.758 0,-7.0704 0.961,-11.5118 3.598,-14.8634 2.64,-3.4843 6.597,-5.3984 11.273,-5.3984 4.801,0 7.797,1.5625 11.637,5.75 l 8.394,-8.0274 c -5.758,-6.121 -11.636,-8.6406 -20.031,-8.6406"
         style="fill:#aa9f93;fill-opacity:1;fill-rule:nonzero;stroke:none"
         id="path44" /><path
         d="M 786.598,73.5469 V 110.84 c 0,9.238 -5.395,13.32 -12.231,13.32 -6.836,0 -12.351,-4.199 -12.351,-13.32 V 73.5469 h -12.235 v 85.3911 h 12.235 v -30.704 c 4.199,4.559 9.714,6.836 15.711,6.836 13.55,0 21.109,-9.113 21.109,-22.304 V 73.5469 h -12.238"
         style="fill:#aa9f93;fill-opacity:1;fill-rule:nonzero;stroke:none"
         id="path46" /><path
         d="m 838.688,72.8242 c -9.954,0 -18.348,1.6797 -25.547,8.7578 l 8.039,8.0391 c 4.918,-5.0391 11.511,-6.3594 17.508,-6.3594 7.437,0 13.312,2.6367 13.312,8.3906 0,4.0821 -2.277,6.7188 -8.156,7.1954 l -9.715,0.8398 c -11.391,0.9685 -17.988,6.1255 -17.988,16.7965 0,11.875 10.195,18.586 22.906,18.586 9.113,0 16.914,-1.914 22.547,-6.836 l -7.676,-7.793 c -3.836,3.243 -9.234,4.434 -14.988,4.434 -7.317,0 -11.035,-3.234 -11.035,-7.793 0,-3.594 1.918,-6.359 8.398,-6.953 l 9.594,-0.84 c 11.39,-0.957 18.109,-6.359 18.109,-17.1484 0,-12.7148 -10.797,-19.3164 -25.308,-19.3164"
         style="fill:#aa9f93;fill-opacity:1;fill-rule:nonzero;stroke:none"
         id="path48" /><path
         d="m 904.207,72.8242 c -13.672,0 -27.105,8.3985 -27.105,31.1798 0,22.793 13.433,31.066 27.105,31.066 8.395,0 14.273,-2.394 20.027,-8.515 l -8.39,-8.157 c -3.84,4.2 -6.836,5.762 -11.637,5.762 -4.68,0 -8.633,-1.922 -11.273,-5.398 -2.637,-3.36 -3.602,-7.676 -3.602,-14.758 0,-7.0704 0.965,-11.5118 3.602,-14.8634 2.64,-3.4843 6.593,-5.3984 11.273,-5.3984 4.801,0 7.797,1.5625 11.637,5.75 l 8.39,-8.0274 c -5.754,-6.121 -11.632,-8.6406 -20.027,-8.6406"
         style="fill:#aa9f93;fill-opacity:1;fill-rule:nonzero;stroke:none"
         id="path50" /><path
         d="M 976.555,73.5469 V 110.84 c 0,9.238 -5.395,13.32 -12.231,13.32 -6.836,0 -12.355,-4.199 -12.355,-13.32 V 73.5469 h -12.231 v 85.3911 h 12.231 v -30.704 c 4.199,4.559 9.715,6.836 15.715,6.836 13.55,0 21.109,-9.113 21.109,-22.304 V 73.5469 h -12.238"
         style="fill:#aa9f93;fill-opacity:1;fill-rule:nonzero;stroke:none"
         id="path52" /><path
         d="m 1045.68,73.5469 v 6.1133 c -4.2,-4.5508 -10.08,-6.836 -16.2,-6.836 -6.24,0 -11.39,2.0391 -14.99,5.5156 -4.67,4.5625 -6.11,10.3125 -6.11,17.1485 v 38.8667 h 12.23 V 97.2969 c 0,-9.4844 5.39,-13.5547 12.23,-13.5547 6.84,0 12.6,4.1992 12.6,13.5547 v 37.0581 h 12.23 V 73.5469 h -11.99"
         style="fill:#aa9f93;fill-opacity:1;fill-rule:nonzero;stroke:none"
         id="path54" /><path
         d="m 1094.77,73.5469 c -11.63,0 -16.67,7.7929 -16.67,16.7851 v 68.606 h 12.23 V 91.0547 c 0,-4.6758 1.68,-7.0781 6.6,-7.0781 h 5.4 V 73.5469 h -7.56"
         style="fill:#aa9f93;fill-opacity:1;fill-rule:nonzero;stroke:none"
         id="path56" /><path
         d="m 1148.74,117.199 c -1.92,4.559 -6.24,7.676 -11.99,7.676 -5.76,0 -10.2,-3.117 -12.12,-7.676 -1.2,-2.754 -1.44,-4.551 -1.56,-8.273 h 27.35 c -0.12,3.722 -0.48,5.519 -1.68,8.273 z m -25.67,-16.789 c 0,-10.4295 5.52,-17.0311 15.47,-17.0311 6.84,0 10.44,1.9258 14.75,6.2422 l 7.8,-7.3164 c -6.23,-6.2383 -12.11,-9.4805 -22.79,-9.4805 -15.23,0 -27.34,8.0352 -27.34,31.1798 0,19.68 10.19,31.066 25.79,31.066 16.3,0 25.78,-11.992 25.78,-29.257 v -5.403 h -39.46"
         style="fill:#aa9f93;fill-opacity:1;fill-rule:nonzero;stroke:none"
         id="path58" /><path
         d="M 1225.43,123.918 V 73.5469 h -12.23 v 50.3711 h -6.96 v 9.355 h 6.96 v 9.356 c 0,8.758 5.27,16.914 16.67,16.914 h 7.67 v -10.441 h -5.4 c -4.55,0 -6.71,-2.637 -6.71,-7.071 v -8.758 h 12.11 v -9.355 h -12.11"
         style="fill:#aa9f93;fill-opacity:1;fill-rule:nonzero;stroke:none"
         id="path60" /><path
         d="m 1283.38,145.988 v 12.95 h 11.03 v -12.95 z m -25.91,0 v 12.95 h 11.03 v -12.95 z m 31.18,-72.4411 v 6.1133 c -4.19,-4.5508 -10.07,-6.836 -16.19,-6.836 -6.24,0 -11.39,2.0391 -14.99,5.5156 -4.67,4.5625 -6.12,10.3125 -6.12,17.1485 v 38.8667 h 12.24 V 97.2969 c 0,-9.4844 5.39,-13.5547 12.23,-13.5547 6.84,0 12.6,4.1992 12.6,13.5547 v 37.0581 h 12.23 V 73.5469 h -12"
         style="fill:#aa9f93;fill-opacity:1;fill-rule:nonzero;stroke:none"
         id="path62" /><path
         d="m 1354.9,120.078 c -2.76,2.766 -4.92,4.082 -9.12,4.082 -6.59,0 -12.11,-5.281 -12.11,-13.672 V 73.5469 h -12.23 v 60.8081 h 11.99 v -6.601 c 3.12,4.316 9.36,7.316 16.19,7.316 5.88,0 10.31,-1.554 14.51,-5.754 l -9.23,-9.238"
         style="fill:#aa9f93;fill-opacity:1;fill-rule:nonzero;stroke:none"
         id="path64" /><path
         d="M 1434.58,147.305 V 73.5469 h -12.96 v 73.7581 h -23.5 v 11.633 h 59.96 v -11.633 h -23.5"
         style="fill:#aa9f93;fill-opacity:1;fill-rule:nonzero;stroke:none"
         id="path66" /><path
         d="m 1498.29,117.199 c -1.92,4.559 -6.24,7.676 -11.99,7.676 -5.76,0 -10.2,-3.117 -12.12,-7.676 -1.2,-2.754 -1.44,-4.551 -1.56,-8.273 h 27.35 c -0.12,3.722 -0.48,5.519 -1.68,8.273 z m -25.67,-16.789 c 0,-10.4295 5.52,-17.0311 15.47,-17.0311 6.84,0 10.44,1.9258 14.75,6.2422 l 7.8,-7.3164 c -6.23,-6.2383 -12.11,-9.4805 -22.79,-9.4805 -15.23,0 -27.34,8.0352 -27.34,31.1798 0,19.68 10.2,31.066 25.79,31.066 16.3,0 25.78,-11.992 25.78,-29.257 v -5.403 h -39.46"
         style="fill:#aa9f93;fill-opacity:1;fill-rule:nonzero;stroke:none"
         id="path68" /><path
         d="m 1553.61,72.8242 c -13.67,0 -27.1,8.3985 -27.1,31.1798 0,22.793 13.43,31.066 27.1,31.066 8.39,0 14.27,-2.394 20.03,-8.515 l -8.39,-8.157 c -3.84,4.2 -6.84,5.762 -11.64,5.762 -4.68,0 -8.63,-1.922 -11.27,-5.398 -2.64,-3.36 -3.6,-7.676 -3.6,-14.758 0,-7.0704 0.96,-11.5118 3.6,-14.8634 2.64,-3.4843 6.59,-5.3984 11.27,-5.3984 4.8,0 7.8,1.5625 11.64,5.75 l 8.39,-8.0274 c -5.76,-6.121 -11.64,-8.6406 -20.03,-8.6406"
         style="fill:#aa9f93;fill-opacity:1;fill-rule:nonzero;stroke:none"
         id="path70" /><path
         d="M 1625.96,73.5469 V 110.84 c 0,9.238 -5.4,13.32 -12.23,13.32 -6.84,0 -12.36,-4.199 -12.36,-13.32 V 73.5469 h -12.22 v 85.3911 h 12.22 v -30.704 c 4.2,4.559 9.71,6.836 15.72,6.836 13.54,0 21.1,-9.113 21.1,-22.304 V 73.5469 h -12.23"
         style="fill:#aa9f93;fill-opacity:1;fill-rule:nonzero;stroke:none"
         id="path72" /><path
         d="m 1695.44,73.5469 v 37.0581 c 0,9.473 -5.39,13.555 -12.23,13.555 -6.84,0 -12.6,-4.199 -12.6,-13.555 V 73.5469 h -12.22 v 60.8081 h 11.99 v -6.121 c 4.2,4.559 10.08,6.836 16.19,6.836 6.23,0 11.39,-2.031 14.99,-5.519 4.68,-4.551 6.12,-10.313 6.12,-17.149 V 73.5469 h -12.24"
         style="fill:#aa9f93;fill-opacity:1;fill-rule:nonzero;stroke:none"
         id="path74" /><path
         d="m 1727.86,73.5469 v 60.8081 h 12.24 V 73.5469 Z m -0.35,72.8011 v 12.949 h 12.95 v -12.949 h -12.95"
         style="fill:#aa9f93;fill-opacity:1;fill-rule:nonzero;stroke:none"
         id="path76" /><path
         d="m 1799.12,73.5469 -17.03,28.0661 -9,-10.195 V 73.5469 h -12.22 v 85.3911 h 12.22 v -52.649 l 23.64,28.066 h 14.86 l -21.11,-23.867 23.75,-36.9411 h -15.11"
         style="fill:#aa9f93;fill-opacity:1;fill-rule:nonzero;stroke:none"
         id="path78" /><path
         d="m 1894.75,73.5469 v 6.1133 c -4.2,-4.5508 -10.07,-6.836 -16.19,-6.836 -6.23,0 -11.38,2.0391 -14.99,5.5156 -4.68,4.5625 -6.11,10.3125 -6.11,17.1485 v 38.8667 h 12.23 V 97.2969 c 0,-9.4844 5.4,-13.5547 12.23,-13.5547 6.84,0 12.6,4.1992 12.6,13.5547 v 37.0581 h 12.23 V 73.5469 h -12"
         style="fill:#aa9f93;fill-opacity:1;fill-rule:nonzero;stroke:none"
         id="path80" /><path
         d="m 1964.6,73.5469 v 37.0581 c 0,9.473 -5.4,13.555 -12.24,13.555 -6.84,0 -12.59,-4.199 -12.59,-13.555 V 73.5469 h -12.23 v 60.8081 h 11.99 v -6.121 c 4.19,4.559 10.07,6.836 16.19,6.836 6.24,0 11.4,-2.031 14.99,-5.519 4.68,-4.551 6.11,-10.313 6.11,-17.149 V 73.5469 h -12.22"
         style="fill:#aa9f93;fill-opacity:1;fill-rule:nonzero;stroke:none"
         id="path82" /><path
         d="m 2019.09,124.16 c -11.04,0 -12.72,-9.355 -12.72,-20.156 0,-10.7892 1.68,-20.2618 12.72,-20.2618 11.03,0 12.59,9.4726 12.59,20.2618 0,10.801 -1.56,20.156 -12.59,20.156 z m 12.83,-50.6131 v 6.4726 c -4.56,-5.5156 -9.47,-7.1953 -16.07,-7.1953 -6.12,0 -11.52,2.0391 -14.88,5.3985 -6.12,6.1132 -6.83,16.5546 -6.83,25.7813 0,9.238 0.71,19.551 6.83,25.676 3.36,3.359 8.65,5.39 14.76,5.39 6.47,0 11.5,-1.554 15.95,-6.836 v 30.704 h 12.23 V 73.5469 h -11.99"
         style="fill:#aa9f93;fill-opacity:1;fill-rule:nonzero;stroke:none"
         id="path84" /><path
         d="m 2122.88,139.629 -13.32,-37.899 h 26.27 z m 22.42,-66.0821 -5.88,17.1484 h -33.69 l -5.88,-17.1484 h -13.79 l 31.29,85.3911 h 10.44 l 31.3,-85.3911 h -13.79"
         style="fill:#aa9f93;fill-opacity:1;fill-rule:nonzero;stroke:none"
         id="path86" /><path
         d="m 2204.6,120.078 c -2.76,2.766 -4.92,4.082 -9.12,4.082 -6.6,0 -12.11,-5.281 -12.11,-13.672 V 73.5469 h -12.23 v 60.8081 h 11.99 v -6.601 c 3.11,4.316 9.36,7.316 16.19,7.316 5.87,0 10.32,-1.554 14.52,-5.754 l -9.24,-9.238"
         style="fill:#aa9f93;fill-opacity:1;fill-rule:nonzero;stroke:none"
         id="path88" /><path
         d="m 2245.25,72.8242 c -13.67,0 -27.1,8.3985 -27.1,31.1798 0,22.793 13.43,31.066 27.1,31.066 8.39,0 14.27,-2.394 20.03,-8.515 l -8.4,-8.157 c -3.83,4.2 -6.83,5.762 -11.63,5.762 -4.68,0 -8.63,-1.922 -11.28,-5.398 -2.63,-3.36 -3.59,-7.676 -3.59,-14.758 0,-7.0704 0.96,-11.5118 3.59,-14.8634 2.65,-3.4843 6.6,-5.3984 11.28,-5.3984 4.8,0 7.8,1.5625 11.63,5.75 l 8.4,-8.0274 c -5.76,-6.121 -11.64,-8.6406 -20.03,-8.6406"
         style="fill:#aa9f93;fill-opacity:1;fill-rule:nonzero;stroke:none"
         id="path90" /><path
         d="M 2317.6,73.5469 V 110.84 c 0,9.238 -5.4,13.32 -12.23,13.32 -6.84,0 -12.35,-4.199 -12.35,-13.32 V 73.5469 h -12.23 v 85.3911 h 12.23 v -30.704 c 4.19,4.559 9.7,6.836 15.71,6.836 13.54,0 21.1,-9.113 21.1,-22.304 V 73.5469 h -12.23"
         style="fill:#aa9f93;fill-opacity:1;fill-rule:nonzero;stroke:none"
         id="path92" /><path
         d="m 2350.03,73.5469 v 60.8081 h 12.22 V 73.5469 Z m -0.36,72.8011 v 12.949 h 12.95 v -12.949 h -12.95"
         style="fill:#aa9f93;fill-opacity:1;fill-rule:nonzero;stroke:none"
         id="path94" /><path
         d="m 2401.14,73.5469 c -11.41,0 -16.68,8.1523 -16.68,16.914 v 33.4571 h -6.95 v 9.355 h 6.95 v 18.465 h 12.24 v -18.465 h 11.74 v -9.355 H 2396.7 V 91.0547 c 0,-4.4336 2.15,-7.0781 6.71,-7.0781 h 5.03 V 73.5469 h -7.3"
         style="fill:#aa9f93;fill-opacity:1;fill-rule:nonzero;stroke:none"
         id="path96" /><path
         d="m 2459.42,117.199 c -1.91,4.559 -6.23,7.676 -11.99,7.676 -5.75,0 -10.2,-3.117 -12.11,-7.676 -1.2,-2.754 -1.45,-4.551 -1.56,-8.273 h 27.34 c -0.12,3.722 -0.47,5.519 -1.68,8.273 z m -25.66,-16.789 c 0,-10.4295 5.52,-17.0311 15.47,-17.0311 6.83,0 10.44,1.9258 14.76,6.2422 l 7.79,-7.3164 c -6.24,-6.2383 -12.11,-9.4805 -22.79,-9.4805 -15.23,0 -27.34,8.0352 -27.34,31.1798 0,19.68 10.19,31.066 25.78,31.066 16.31,0 25.79,-11.992 25.79,-29.257 v -5.403 h -39.46"
         style="fill:#aa9f93;fill-opacity:1;fill-rule:nonzero;stroke:none"
         id="path98" /><path
         d="M 2529.03,73.5469 2512,101.613 2503,91.418 V 73.5469 h -12.23 V 158.938 H 2503 v -52.649 l 23.63,28.066 h 14.86 l -21.09,-23.867 23.74,-36.9411 h -15.11"
         style="fill:#aa9f93;fill-opacity:1;fill-rule:nonzero;stroke:none"
         id="path100" /><path
         d="m 2575.94,73.5469 c -11.38,0 -16.66,8.1523 -16.66,16.914 v 33.4571 h -6.95 v 9.355 h 6.95 v 18.465 h 12.23 v -18.465 h 11.76 v -9.355 h -11.76 V 91.0547 c 0,-4.4336 2.17,-7.0781 6.72,-7.0781 h 5.04 V 73.5469 h -7.33"
         style="fill:#aa9f93;fill-opacity:1;fill-rule:nonzero;stroke:none"
         id="path102" /><path
         d="m 2636.9,73.5469 v 6.1133 c -4.2,-4.5508 -10.08,-6.836 -16.19,-6.836 -6.23,0 -11.4,2.0391 -15,5.5156 -4.67,4.5625 -6.11,10.3125 -6.11,17.1485 v 38.8667 h 12.23 V 97.2969 c 0,-9.4844 5.4,-13.5547 12.24,-13.5547 6.84,0 12.6,4.1992 12.6,13.5547 v 37.0581 h 12.22 V 73.5469 h -11.99"
         style="fill:#aa9f93;fill-opacity:1;fill-rule:nonzero;stroke:none"
         id="path104" /><path
         d="m 2703.15,120.078 c -2.76,2.766 -4.92,4.082 -9.12,4.082 -6.6,0 -12.11,-5.281 -12.11,-13.672 V 73.5469 h -12.23 v 60.8081 h 11.99 v -6.601 c 3.11,4.316 9.35,7.316 16.19,7.316 5.87,0 10.31,-1.554 14.51,-5.754 l -9.23,-9.238"
         style="fill:#aa9f93;fill-opacity:1;fill-rule:nonzero;stroke:none"
         id="path106" /><path
         d="m 2770.11,147.305 v -26.024 h 35.5 v -11.633 h -35.5 V 73.5469 h -12.95 v 85.3911 h 54.57 v -11.633 h -41.62"
         style="fill:#aa9f93;fill-opacity:1;fill-rule:nonzero;stroke:none"
         id="path108" /><path
         d="m 2855.53,120.078 c -2.75,2.766 -4.91,4.082 -9.1,4.082 -6.6,0 -12.12,-5.281 -12.12,-13.672 V 73.5469 h -12.23 v 60.8081 h 11.99 v -6.601 c 3.12,4.316 9.36,7.316 16.19,7.316 5.88,0 10.31,-1.554 14.51,-5.754 l -9.24,-9.238"
         style="fill:#aa9f93;fill-opacity:1;fill-rule:nonzero;stroke:none"
         id="path110" /><path
         d="m 2905.31,117.199 c -1.92,4.559 -6.24,7.676 -11.99,7.676 -5.75,0 -10.2,-3.117 -12.12,-7.676 -1.19,-2.754 -1.44,-4.551 -1.55,-8.273 h 27.34 c -0.13,3.722 -0.48,5.519 -1.68,8.273 z m -25.66,-16.789 c 0,-10.4295 5.51,-17.0311 15.46,-17.0311 6.84,0 10.44,1.9258 14.76,6.2422 l 7.79,-7.3164 c -6.23,-6.2383 -12.11,-9.4805 -22.79,-9.4805 -15.22,0 -27.34,8.0352 -27.34,31.1798 0,19.68 10.19,31.066 25.79,31.066 16.31,0 25.79,-11.992 25.79,-29.257 v -5.403 h -39.46"
         style="fill:#aa9f93;fill-opacity:1;fill-rule:nonzero;stroke:none"
         id="path112" /><path
         d="m 2935.09,73.5469 v 60.8081 h 12.23 V 73.5469 Z m -0.36,72.8011 v 12.949 h 12.95 v -12.949 h -12.95"
         style="fill:#aa9f93;fill-opacity:1;fill-rule:nonzero;stroke:none"
         id="path114" /><path
         d="m 2991.47,124.16 c -11.03,0 -12.71,-9.355 -12.71,-20.156 0,-10.7892 1.68,-20.2618 12.71,-20.2618 11.04,0 12.6,9.4726 12.6,20.2618 0,10.801 -1.56,20.156 -12.6,20.156 z m 17.99,-45.9373 c -3.36,-3.3594 -8.75,-5.3985 -14.86,-5.3985 -6.6,0 -11.53,1.6797 -16.08,7.1953 v -6.4726 h -11.99 v 85.3911 h 12.23 v -30.704 c 4.44,5.282 9.47,6.836 15.95,6.836 6.12,0 11.39,-2.031 14.75,-5.39 6.12,-6.125 6.84,-16.438 6.84,-25.676 0,-9.2267 -0.72,-19.6681 -6.84,-25.7813"
         style="fill:#aa9f93;fill-opacity:1;fill-rule:nonzero;stroke:none"
         id="path116" /><path
         d="m 3069.34,73.5469 v 6.1133 c -4.2,-4.5508 -10.07,-6.836 -16.19,-6.836 -6.23,0 -11.38,2.0391 -14.99,5.5156 -4.68,4.5625 -6.11,10.3125 -6.11,17.1485 v 38.8667 h 12.23 V 97.2969 c 0,-9.4844 5.4,-13.5547 12.23,-13.5547 6.84,0 12.6,4.1992 12.6,13.5547 v 37.0581 h 12.23 V 73.5469 h -12"
         style="fill:#aa9f93;fill-opacity:1;fill-rule:nonzero;stroke:none"
         id="path118" /><path
         d="m 3134.03,120.078 c -2.75,2.766 -4.92,4.082 -9.12,4.082 -6.59,0 -12.11,-5.281 -12.11,-13.672 V 73.5469 h -12.23 v 60.8081 h 12 v -6.601 c 3.1,4.316 9.35,7.316 16.19,7.316 5.87,0 10.31,-1.554 14.51,-5.754 l -9.24,-9.238"
         style="fill:#aa9f93;fill-opacity:1;fill-rule:nonzero;stroke:none"
         id="path120" /><path
         d="m 3170.96,124.16 c -11.03,0 -12.47,-9.48 -12.47,-19.07 0,-9.6017 1.44,-19.0744 12.47,-19.0744 11.04,0 12.37,9.4727 12.37,19.0744 0,9.59 -1.33,19.07 -12.37,19.07 z m -1.43,-75.9178 c -9.23,0 -15.11,2.1601 -21.48,8.0391 l 7.81,7.7929 c 3.83,-3.6054 7.19,-5.4023 13.19,-5.4023 10.31,0 14.28,7.3164 14.28,15.4687 v 7.8047 c -4.45,-5.2851 -9.48,-6.9648 -15.73,-6.9648 -6.11,0 -11.15,2.0429 -14.51,5.4023 -5.87,5.8789 -6.83,14.3945 -6.83,24.7072 0,10.312 0.96,18.828 6.83,24.707 3.36,3.359 8.52,5.273 14.64,5.273 6.48,0 11.4,-1.679 15.95,-7.199 v 6.484 h 11.87 V 73.9063 c 0,-14.8711 -9.83,-25.6641 -26.02,-25.6641"
         style="fill:#aa9f93;fill-opacity:1;fill-rule:nonzero;stroke:none"
         id="path122" /><path
         d="m 589.52,210.824 v 37.297 h -34.665 v -37.297 h -12.953 v 85.395 h 12.953 v -36.457 h 34.665 v 36.457 h 12.949 V 210.824 H 589.52"
         style="fill:#0979b8;fill-opacity:1;fill-rule:nonzero;stroke:none"
         id="path124" /><path
         d="m 655.047,237.691 h -14.274 c -7.195,0 -10.914,-3.242 -10.914,-8.757 0,-5.508 3.477,-8.633 11.153,-8.633 4.679,0 8.156,0.359 11.398,3.476 1.797,1.805 2.637,4.676 2.637,8.993 z m 0.238,-26.867 v 5.52 c -4.437,-4.434 -8.633,-6.239 -16.191,-6.239 -7.551,0 -12.594,1.805 -16.309,5.516 -3.117,3.242 -4.801,7.918 -4.801,13.074 0,10.2 7.079,17.512 20.993,17.512 h 16.07 v 4.316 c 0,7.676 -3.84,11.399 -13.313,11.399 -6.718,0 -9.953,-1.563 -13.312,-5.883 l -8.039,7.563 c 5.758,6.718 11.758,8.75 21.832,8.75 16.668,0 25.062,-7.075 25.062,-20.872 v -40.656 h -11.992"
         style="fill:#0979b8;fill-opacity:1;fill-rule:nonzero;stroke:none"
         id="path126" /><path
         d="m 722.004,210.824 v 6.117 c -4.199,-4.55 -10.078,-6.836 -16.191,-6.836 -6.235,0 -11.395,2.04 -14.997,5.516 -4.675,4.563 -6.113,10.313 -6.113,17.149 v 38.867 h 12.235 v -37.063 c 0,-9.48 5.394,-13.551 12.23,-13.551 6.84,0 12.598,4.2 12.598,13.551 v 37.063 h 12.23 v -60.813 h -11.992"
         style="fill:#0979b8;fill-opacity:1;fill-rule:nonzero;stroke:none"
         id="path128" /><path
         d="m 770.73,210.824 c -11.39,0 -16.671,8.156 -16.671,16.914 v 33.457 h -6.954 v 9.36 h 6.954 v 18.465 h 12.238 v -18.465 h 11.754 v -9.36 h -11.754 v -32.859 c 0,-4.434 2.156,-7.078 6.715,-7.078 h 5.039 v -10.434 h -7.321"
         style="fill:#0979b8;fill-opacity:1;fill-rule:nonzero;stroke:none"
         id="path130" /><path
         d="m 826.867,254.48 c -1.918,4.559 -6.234,7.672 -11.992,7.672 -5.758,0 -10.195,-3.113 -12.113,-7.672 -1.203,-2.753 -1.442,-4.55 -1.559,-8.273 h 27.344 c -0.121,3.723 -0.477,5.52 -1.68,8.273 z m -25.664,-16.789 c 0,-10.429 5.52,-17.031 15.469,-17.031 6.836,0 10.433,1.926 14.75,6.242 l 7.801,-7.316 c -6.239,-6.238 -12.118,-9.481 -22.789,-9.481 -15.231,0 -27.344,8.036 -27.344,31.18 0,19.68 10.195,31.067 25.785,31.067 16.309,0 25.785,-11.993 25.785,-29.258 v -5.403 h -39.457"
         style="fill:#0979b8;fill-opacity:1;fill-rule:nonzero;stroke:none"
         id="path132" /><path
         d="m 910.031,282.66 h -9.238 l 9,19.438 h 13.551 z m 8.633,-28.18 c -1.918,4.559 -6.234,7.672 -11.992,7.672 -5.754,0 -10.195,-3.113 -12.113,-7.672 -1.204,-2.753 -1.442,-4.55 -1.559,-8.273 h 27.344 c -0.121,3.723 -0.477,5.52 -1.68,8.273 z M 893,237.691 c 0,-10.429 5.52,-17.031 15.469,-17.031 6.836,0 10.433,1.926 14.75,6.242 l 7.801,-7.316 c -6.239,-6.238 -12.118,-9.481 -22.79,-9.481 -15.23,0 -27.343,8.036 -27.343,31.18 0,19.68 10.195,31.067 25.785,31.067 16.308,0 25.785,-11.993 25.785,-29.258 v -5.403 H 893"
         style="fill:#0979b8;fill-opacity:1;fill-rule:nonzero;stroke:none"
         id="path134" /><path
         d="m 971.828,210.105 c -13.672,0 -27.105,8.399 -27.105,31.18 0,22.793 13.433,31.067 27.105,31.067 8.395,0 14.274,-2.395 20.031,-8.516 l -8.394,-8.156 c -3.84,4.199 -6.836,5.761 -11.637,5.761 -4.676,0 -8.633,-1.921 -11.273,-5.402 -2.637,-3.355 -3.598,-7.676 -3.598,-14.754 0,-7.07 0.961,-11.512 3.598,-14.863 2.64,-3.484 6.597,-5.399 11.273,-5.399 4.801,0 7.797,1.563 11.637,5.75 l 8.394,-8.027 c -5.757,-6.125 -11.636,-8.641 -20.031,-8.641"
         style="fill:#0979b8;fill-opacity:1;fill-rule:nonzero;stroke:none"
         id="path136" /><path
         d="m 1034.57,257.965 c -2.28,2.273 -5.39,3.476 -8.99,3.476 -3.6,0 -6.6,-1.203 -8.88,-3.476 -3.71,-3.723 -4.2,-10.078 -4.2,-16.68 0,-6.59 0.49,-12.949 4.2,-16.672 2.28,-2.273 5.28,-3.59 8.88,-3.59 3.6,0 6.71,1.317 8.99,3.59 3.72,3.723 4.2,10.082 4.2,16.672 0,6.602 -0.48,12.957 -4.2,16.68 z m 9.24,-40.664 c -3.96,-4.071 -9.96,-7.196 -18.23,-7.196 -8.28,0 -14.16,3.125 -18.11,7.196 -5.76,5.996 -7.2,13.672 -7.2,23.984 0,10.195 1.44,17.871 7.2,23.867 3.95,4.082 9.83,7.2 18.11,7.2 8.27,0 14.27,-3.118 18.23,-7.2 5.75,-5.996 7.19,-13.672 7.19,-23.867 0,-10.312 -1.44,-17.988 -7.19,-23.984"
         style="fill:#0979b8;fill-opacity:1;fill-rule:nonzero;stroke:none"
         id="path138" /><path
         d="m 1083.06,210.824 c -11.64,0 -16.67,7.793 -16.67,16.789 v 68.606 h 12.23 v -67.883 c 0,-4.68 1.68,-7.078 6.6,-7.078 h 5.39 v -10.434 h -7.55"
         style="fill:#0979b8;fill-opacity:1;fill-rule:nonzero;stroke:none"
         id="path140" /><path
         d="m 1134.87,254.48 c -1.92,4.559 -6.23,7.672 -11.99,7.672 -5.76,0 -10.2,-3.113 -12.12,-7.672 -1.2,-2.753 -1.44,-4.55 -1.55,-8.273 h 27.34 c -0.12,3.723 -0.48,5.52 -1.68,8.273 z m -25.66,-16.789 c 0,-10.429 5.51,-17.031 15.47,-17.031 6.83,0 10.43,1.926 14.75,6.242 l 7.79,-7.316 c -6.23,-6.238 -12.11,-9.481 -22.78,-9.481 -15.23,0 -27.35,8.036 -27.35,31.18 0,19.68 10.2,31.067 25.79,31.067 16.31,0 25.78,-11.993 25.78,-29.258 v -5.403 h -39.45"
         style="fill:#0979b8;fill-opacity:1;fill-rule:nonzero;stroke:none"
         id="path142" /><path
         d="m 1214.07,261.441 c -11.03,0 -12.71,-9.355 -12.71,-20.156 0,-10.793 1.68,-20.262 12.71,-20.262 11.04,0 12.6,9.469 12.6,20.262 0,10.801 -1.56,20.156 -12.6,20.156 z m 12.84,-50.617 v 6.477 c -4.56,-5.52 -9.48,-7.196 -16.07,-7.196 -6.12,0 -11.52,2.04 -14.88,5.399 -6.11,6.113 -6.83,16.555 -6.83,25.781 0,9.238 0.72,19.551 6.83,25.676 3.36,3.359 8.64,5.391 14.76,5.391 6.47,0 11.51,-1.555 15.95,-6.836 v 30.703 h 12.23 v -85.395 h -11.99"
         style="fill:#0979b8;fill-opacity:1;fill-rule:nonzero;stroke:none"
         id="path144" /><path
         d="m 1257.17,272.711 v 23.508 h 13.43 v -12.59 l -13.43,-10.918"
         style="fill:#0979b8;fill-opacity:1;fill-rule:nonzero;stroke:none"
         id="path146" /><path
         d="m 1288.85,210.824 v 60.813 h 12.23 v -60.813 z m -0.37,72.805 v 12.949 h 12.96 v -12.949 h -12.96"
         style="fill:#0979b8;fill-opacity:1;fill-rule:nonzero;stroke:none"
         id="path148" /><path
         d="m 1356.74,210.824 v 37.063 c 0,9.472 -5.39,13.554 -12.23,13.554 -6.84,0 -12.59,-4.199 -12.59,-13.554 v -37.063 h -12.23 v 60.813 h 11.99 v -6.121 c 4.2,4.558 10.07,6.836 16.19,6.836 6.23,0 11.39,-2.032 14.99,-5.52 4.68,-4.551 6.12,-10.312 6.12,-17.148 v -38.86 h -12.24"
         style="fill:#0979b8;fill-opacity:1;fill-rule:nonzero;stroke:none"
         id="path150" /><path
         d="m 1408.83,261.441 c -11.03,0 -12.48,-9.48 -12.48,-19.074 0,-9.597 1.45,-19.07 12.48,-19.07 11.04,0 12.35,9.473 12.35,19.07 0,9.594 -1.31,19.074 -12.35,19.074 z m -1.44,-75.918 c -9.23,0 -15.11,2.161 -21.46,8.04 l 7.79,7.792 c 3.84,-3.605 7.2,-5.402 13.19,-5.402 10.31,0 14.27,7.317 14.27,15.469 v 7.805 c -4.43,-5.286 -9.47,-6.965 -15.71,-6.965 -6.12,0 -11.15,2.043 -14.51,5.398 -5.87,5.879 -6.84,14.399 -6.84,24.707 0,10.317 0.97,18.828 6.84,24.707 3.36,3.364 8.52,5.278 14.63,5.278 6.48,0 11.39,-1.68 15.96,-7.2 v 6.485 h 11.87 v -60.449 c 0,-14.872 -9.84,-25.665 -26.03,-25.665"
         style="fill:#0979b8;fill-opacity:1;fill-rule:nonzero;stroke:none"
         id="path152" /><path
         d="m 1478.07,282.66 h -9.24 l 9,19.438 h 13.55 z m 8.63,-28.18 c -1.92,4.559 -6.23,7.672 -11.99,7.672 -5.76,0 -10.2,-3.113 -12.11,-7.672 -1.21,-2.753 -1.45,-4.55 -1.56,-8.273 h 27.34 c -0.12,3.723 -0.48,5.52 -1.68,8.273 z m -25.66,-16.789 c 0,-10.429 5.52,-17.031 15.47,-17.031 6.83,0 10.43,1.926 14.75,6.242 l 7.8,-7.316 c -6.24,-6.238 -12.12,-9.481 -22.79,-9.481 -15.23,0 -27.35,8.036 -27.35,31.18 0,19.68 10.2,31.067 25.79,31.067 16.31,0 25.79,-11.993 25.79,-29.258 v -5.403 h -39.46"
         style="fill:#0979b8;fill-opacity:1;fill-rule:nonzero;stroke:none"
         id="path154" /><path
         d="m 1552.94,210.824 v 37.063 c 0,9.472 -5.4,13.554 -12.23,13.554 -6.84,0 -12.6,-4.199 -12.6,-13.554 v -37.063 h -12.23 v 60.813 h 11.99 v -6.121 c 4.2,4.558 10.08,6.836 16.19,6.836 6.24,0 11.4,-2.032 15,-5.52 4.67,-4.551 6.11,-10.312 6.11,-17.148 v -38.86 h -12.23"
         style="fill:#0979b8;fill-opacity:1;fill-rule:nonzero;stroke:none"
         id="path156" /><path
         d="m 1583.2,210.824 v 60.813 h 12.23 v -60.813 z m -0.36,72.805 v 12.949 h 12.95 v -12.949 h -12.95"
         style="fill:#0979b8;fill-opacity:1;fill-rule:nonzero;stroke:none"
         id="path158" /><path
         d="m 1648.7,254.48 c -1.92,4.559 -6.24,7.672 -11.99,7.672 -5.77,0 -10.2,-3.113 -12.11,-7.672 -1.2,-2.753 -1.45,-4.55 -1.57,-8.273 h 27.35 c -0.12,3.723 -0.48,5.52 -1.68,8.273 z m -25.67,-16.789 c 0,-10.429 5.52,-17.031 15.47,-17.031 6.84,0 10.44,1.926 14.76,6.242 l 7.79,-7.316 c -6.24,-6.238 -12.11,-9.481 -22.78,-9.481 -15.24,0 -27.35,8.036 -27.35,31.18 0,19.68 10.19,31.067 25.79,31.067 16.31,0 25.78,-11.993 25.78,-29.258 v -5.403 h -39.46"
         style="fill:#0979b8;fill-opacity:1;fill-rule:nonzero;stroke:none"
         id="path160" /><path
         d="m 1711.34,257.359 c -2.76,2.762 -4.92,4.082 -9.12,4.082 -6.6,0 -12.12,-5.285 -12.12,-13.671 v -36.946 h -12.22 v 60.813 h 11.99 v -6.602 c 3.12,4.317 9.36,7.317 16.19,7.317 5.88,0 10.31,-1.555 14.51,-5.754 l -9.23,-9.239"
         style="fill:#0979b8;fill-opacity:1;fill-rule:nonzero;stroke:none"
         id="path162" /><path
         d="m 1729.71,210.824 v 60.813 h 12.23 v -60.813 z m -0.36,72.805 v 12.949 h 12.95 v -12.949 h -12.95"
         style="fill:#0979b8;fill-opacity:1;fill-rule:nonzero;stroke:none"
         id="path164" /><path
         d="m 1795.21,254.48 c -1.91,4.559 -6.24,7.672 -11.99,7.672 -5.76,0 -10.2,-3.113 -12.11,-7.672 -1.2,-2.753 -1.44,-4.55 -1.56,-8.273 h 27.34 c -0.12,3.723 -0.48,5.52 -1.68,8.273 z m -25.66,-16.789 c 0,-10.429 5.52,-17.031 15.47,-17.031 6.83,0 10.44,1.926 14.75,6.242 l 7.8,-7.316 c -6.24,-6.238 -12.11,-9.481 -22.79,-9.481 -15.23,0 -27.35,8.036 -27.35,31.18 0,19.68 10.19,31.067 25.79,31.067 16.31,0 25.78,-11.993 25.78,-29.258 v -5.403 h -39.45"
         style="fill:#0979b8;fill-opacity:1;fill-rule:nonzero;stroke:none"
         id="path166" /><path
         d="m 1887.01,254.48 c -1.91,4.559 -6.24,7.672 -11.99,7.672 -5.76,0 -10.2,-3.113 -12.11,-7.672 -1.2,-2.753 -1.45,-4.55 -1.56,-8.273 h 27.34 c -0.12,3.723 -0.48,5.52 -1.68,8.273 z m -25.66,-16.789 c 0,-10.429 5.51,-17.031 15.46,-17.031 6.84,0 10.44,1.926 14.76,6.242 l 7.79,-7.316 c -6.24,-6.238 -12.11,-9.481 -22.78,-9.481 -15.23,0 -27.35,8.036 -27.35,31.18 0,19.68 10.19,31.067 25.79,31.067 16.31,0 25.78,-11.993 25.78,-29.258 v -5.403 h -39.45"
         style="fill:#0979b8;fill-opacity:1;fill-rule:nonzero;stroke:none"
         id="path168" /><path
         d="m 1934.29,210.824 c -11.38,0 -16.67,8.156 -16.67,16.914 v 33.457 h -6.95 v 9.36 h 6.95 v 18.465 h 12.24 v -18.465 h 11.75 v -9.36 h -11.75 v -32.859 c 0,-4.434 2.16,-7.078 6.72,-7.078 h 5.03 v -10.434 h -7.32"
         style="fill:#0979b8;fill-opacity:1;fill-rule:nonzero;stroke:none"
         id="path170" /><path
         d="m 2006.42,261.441 c -11.03,0 -12.71,-9.355 -12.71,-20.156 0,-10.793 1.68,-20.262 12.71,-20.262 11.03,0 12.59,9.469 12.59,20.262 0,10.801 -1.56,20.156 -12.59,20.156 z m 12.84,-50.617 v 6.477 c -4.57,-5.52 -9.49,-7.196 -16.08,-7.196 -6.11,0 -11.51,2.04 -14.87,5.399 -6.12,6.113 -6.84,16.555 -6.84,25.781 0,9.238 0.72,19.551 6.84,25.676 3.36,3.359 8.63,5.391 14.75,5.391 6.48,0 11.52,-1.555 15.95,-6.836 v 30.703 h 12.24 v -85.395 h -11.99"
         style="fill:#0979b8;fill-opacity:1;fill-rule:nonzero;stroke:none"
         id="path172" /><path
         d="m 2049.51,272.711 v 23.508 h 13.43 v -12.59 l -13.43,-10.918"
         style="fill:#0979b8;fill-opacity:1;fill-rule:nonzero;stroke:none"
         id="path174" /><path
         d="m 2113.69,237.691 h -14.27 c -7.2,0 -10.92,-3.242 -10.92,-8.757 0,-5.508 3.48,-8.633 11.16,-8.633 4.67,0 8.15,0.359 11.39,3.476 1.8,1.805 2.64,4.676 2.64,8.993 z m 0.24,-26.867 v 5.52 c -4.44,-4.434 -8.64,-6.239 -16.19,-6.239 -7.56,0 -12.6,1.805 -16.32,5.516 -3.11,3.242 -4.79,7.918 -4.79,13.074 0,10.2 7.08,17.512 20.98,17.512 h 16.08 v 4.316 c 0,7.676 -3.84,11.399 -13.31,11.399 -6.72,0 -9.96,-1.563 -13.31,-5.883 l -8.04,7.563 c 5.75,6.718 11.75,8.75 21.83,8.75 16.67,0 25.07,-7.075 25.07,-20.872 v -40.656 h -12"
         style="fill:#0979b8;fill-opacity:1;fill-rule:nonzero;stroke:none"
         id="path176" /><path
         d="m 2177.41,257.359 c -2.75,2.762 -4.91,4.082 -9.11,4.082 -6.6,0 -12.12,-5.285 -12.12,-13.671 v -36.946 h -12.23 v 60.813 h 11.99 v -6.602 c 3.12,4.317 9.36,7.317 16.2,7.317 5.88,0 10.31,-1.555 14.51,-5.754 l -9.24,-9.239"
         style="fill:#0979b8;fill-opacity:1;fill-rule:nonzero;stroke:none"
         id="path178" /><path
         d="m 2215.91,210.105 c -13.68,0 -27.11,8.399 -27.11,31.18 0,22.793 13.43,31.067 27.11,31.067 8.39,0 14.27,-2.395 20.03,-8.516 l -8.4,-8.156 c -3.84,4.199 -6.84,5.761 -11.63,5.761 -4.68,0 -8.64,-1.921 -11.27,-5.402 -2.65,-3.355 -3.61,-7.676 -3.61,-14.754 0,-7.07 0.96,-11.512 3.61,-14.863 2.63,-3.484 6.59,-5.399 11.27,-5.399 4.79,0 7.79,1.563 11.63,5.75 l 8.4,-8.027 c -5.76,-6.125 -11.64,-8.641 -20.03,-8.641"
         style="fill:#0979b8;fill-opacity:1;fill-rule:nonzero;stroke:none"
         id="path180" /><path
         d="m 2286.1,210.824 v 37.297 c 0,9.238 -5.4,13.32 -12.24,13.32 -6.83,0 -12.35,-4.199 -12.35,-13.32 v -37.297 h -12.23 v 85.395 h 12.23 v -30.703 c 4.2,4.558 9.72,6.836 15.71,6.836 13.56,0 21.12,-9.114 21.12,-22.305 v -39.223 h -12.24"
         style="fill:#0979b8;fill-opacity:1;fill-rule:nonzero;stroke:none"
         id="path182" /><path
         d="m 2316.35,210.824 v 60.813 h 12.23 v -60.813 z m -0.36,72.805 v 12.949 h 12.95 v -12.949 h -12.95"
         style="fill:#0979b8;fill-opacity:1;fill-rule:nonzero;stroke:none"
         id="path184" /><path
         d="m 2365.3,210.824 c -11.39,0 -16.67,8.156 -16.67,16.914 v 33.457 h -6.95 v 9.36 h 6.95 v 18.465 h 12.24 v -18.465 h 11.74 v -9.36 h -11.74 v -32.859 c 0,-4.434 2.15,-7.078 6.72,-7.078 h 5.02 v -10.434 h -7.31"
         style="fill:#0979b8;fill-opacity:1;fill-rule:nonzero;stroke:none"
         id="path186" /><path
         d="m 2421.44,254.48 c -1.91,4.559 -6.24,7.672 -11.99,7.672 -5.76,0 -10.19,-3.113 -12.11,-7.672 -1.2,-2.753 -1.44,-4.55 -1.56,-8.273 h 27.34 c -0.11,3.723 -0.48,5.52 -1.68,8.273 z m -25.66,-16.789 c 0,-10.429 5.52,-17.031 15.47,-17.031 6.83,0 10.44,1.926 14.75,6.242 l 7.8,-7.316 c -6.24,-6.238 -12.11,-9.481 -22.79,-9.481 -15.23,0 -27.35,8.036 -27.35,31.18 0,19.68 10.19,31.067 25.79,31.067 16.31,0 25.78,-11.993 25.78,-29.258 v -5.403 h -39.45"
         style="fill:#0979b8;fill-opacity:1;fill-rule:nonzero;stroke:none"
         id="path188" /><path
         d="m 2474.61,210.105 c -13.67,0 -27.11,8.399 -27.11,31.18 0,22.793 13.44,31.067 27.11,31.067 8.4,0 14.26,-2.395 20.03,-8.516 l -8.4,-8.156 c -3.84,4.199 -6.84,5.761 -11.63,5.761 -4.68,0 -8.64,-1.921 -11.27,-5.402 -2.65,-3.355 -3.61,-7.676 -3.61,-14.754 0,-7.07 0.96,-11.512 3.61,-14.863 2.63,-3.484 6.59,-5.399 11.27,-5.399 4.79,0 7.79,1.563 11.63,5.75 l 8.4,-8.027 c -5.77,-6.125 -11.63,-8.641 -20.03,-8.641"
         style="fill:#0979b8;fill-opacity:1;fill-rule:nonzero;stroke:none"
         id="path190" /><path
         d="m 2526.08,210.824 c -11.39,0 -16.67,8.156 -16.67,16.914 v 33.457 h -6.95 v 9.36 h 6.95 v 18.465 h 12.24 v -18.465 h 11.75 v -9.36 h -11.75 v -32.859 c 0,-4.434 2.16,-7.078 6.72,-7.078 h 5.03 v -10.434 h -7.32"
         style="fill:#0979b8;fill-opacity:1;fill-rule:nonzero;stroke:none"
         id="path192" /><path
         d="m 2584.88,210.824 v 6.117 c -4.2,-4.55 -10.08,-6.836 -16.19,-6.836 -6.24,0 -11.4,2.04 -14.99,5.516 -4.68,4.563 -6.12,10.313 -6.12,17.149 v 38.867 h 12.23 v -37.063 c 0,-9.48 5.4,-13.551 12.24,-13.551 6.83,0 12.59,4.2 12.59,13.551 v 37.063 h 12.23 v -60.813 h -11.99"
         style="fill:#0979b8;fill-opacity:1;fill-rule:nonzero;stroke:none"
         id="path194" /><path
         d="m 2649.08,257.359 c -2.75,2.762 -4.91,4.082 -9.11,4.082 -6.6,0 -12.12,-5.285 -12.12,-13.671 v -36.946 h -12.23 v 60.813 h 11.99 v -6.602 c 3.12,4.317 9.36,7.317 16.2,7.317 5.88,0 10.31,-1.555 14.51,-5.754 l -9.24,-9.239"
         style="fill:#0979b8;fill-opacity:1;fill-rule:nonzero;stroke:none"
         id="path196" /><path
         d="m 2698.37,254.48 c -1.92,4.559 -6.24,7.672 -12,7.672 -5.76,0 -10.19,-3.113 -12.1,-7.672 -1.21,-2.753 -1.45,-4.55 -1.57,-8.273 h 27.35 c -0.12,3.723 -0.48,5.52 -1.68,8.273 z m -25.67,-16.789 c 0,-10.429 5.52,-17.031 15.47,-17.031 6.84,0 10.44,1.926 14.76,6.242 l 7.79,-7.316 c -6.24,-6.238 -12.11,-9.481 -22.78,-9.481 -15.24,0 -27.36,8.036 -27.36,31.18 0,19.68 10.2,31.067 25.79,31.067 16.31,0 25.79,-11.993 25.79,-29.258 v -5.403 h -39.46"
         style="fill:#0979b8;fill-opacity:1;fill-rule:nonzero;stroke:none"
         id="path198" /><path
         d="m 2769.9,284.586 v -26.023 h 35.5 V 246.93 h -35.5 v -36.106 h -12.96 v 85.395 h 54.57 v -11.633 h -41.61"
         style="fill:#0979b8;fill-opacity:1;fill-rule:nonzero;stroke:none"
         id="path200" /><path
         d="m 2854.72,257.359 c -2.75,2.762 -4.91,4.082 -9.11,4.082 -6.6,0 -12.12,-5.285 -12.12,-13.671 v -36.946 h -12.22 v 60.813 h 11.99 v -6.602 c 3.11,4.317 9.35,7.317 16.19,7.317 5.88,0 10.31,-1.555 14.51,-5.754 l -9.24,-9.239"
         style="fill:#0979b8;fill-opacity:1;fill-rule:nonzero;stroke:none"
         id="path202" /><path
         d="m 2873.34,210.824 v 60.813 h 12.22 v -60.813 z m -0.36,72.805 v 12.949 h 12.95 v -12.949 h -12.95"
         style="fill:#0979b8;fill-opacity:1;fill-rule:nonzero;stroke:none"
         id="path204" /><path
         d="m 2929.36,261.441 c -11.03,0 -12.71,-9.355 -12.71,-20.156 0,-10.793 1.68,-20.262 12.71,-20.262 11.04,0 12.6,9.469 12.6,20.262 0,10.801 -1.56,20.156 -12.6,20.156 z m 17.99,-45.937 c -3.35,-3.359 -8.75,-5.399 -14.86,-5.399 -6.6,0 -11.52,1.676 -16.08,7.196 v -6.477 h -11.99 v 85.395 h 12.23 v -30.703 c 4.44,5.281 9.48,6.836 15.95,6.836 6.12,0 11.4,-2.032 14.75,-5.391 6.12,-6.125 6.84,-16.438 6.84,-25.676 0,-9.226 -0.72,-19.668 -6.84,-25.781"
         style="fill:#0979b8;fill-opacity:1;fill-rule:nonzero;stroke:none"
         id="path206" /><path
         d="m 3001.6,257.965 c -2.28,2.273 -5.39,3.476 -9,3.476 -3.59,0 -6.59,-1.203 -8.86,-3.476 -3.72,-3.723 -4.2,-10.078 -4.2,-16.68 0,-6.59 0.48,-12.949 4.2,-16.672 2.27,-2.273 5.27,-3.59 8.86,-3.59 3.61,0 6.72,1.317 9,3.59 3.72,3.723 4.2,10.082 4.2,16.672 0,6.602 -0.48,12.957 -4.2,16.68 z m 9.24,-40.664 c -3.96,-4.071 -9.95,-7.196 -18.24,-7.196 -8.27,0 -14.15,3.125 -18.1,7.196 -5.76,5.996 -7.2,13.672 -7.2,23.984 0,10.195 1.44,17.871 7.2,23.867 3.95,4.082 9.83,7.2 18.1,7.2 8.29,0 14.28,-3.118 18.24,-7.2 5.76,-5.996 7.19,-13.672 7.19,-23.867 0,-10.312 -1.43,-17.988 -7.19,-23.984"
         style="fill:#0979b8;fill-opacity:1;fill-rule:nonzero;stroke:none"
         id="path208" /><path
         d="m 3070.48,210.824 v 6.117 c -4.2,-4.55 -10.08,-6.836 -16.2,-6.836 -6.24,0 -11.39,2.04 -14.99,5.516 -4.67,4.563 -6.12,10.313 -6.12,17.149 v 38.867 h 12.24 v -37.063 c 0,-9.48 5.4,-13.551 12.23,-13.551 6.84,0 12.59,4.2 12.59,13.551 v 37.063 h 12.24 v -60.813 h -11.99"
         style="fill:#0979b8;fill-opacity:1;fill-rule:nonzero;stroke:none"
         id="path210" /><path
         d="m 3134.56,257.359 c -2.76,2.762 -4.91,4.082 -9.11,4.082 -6.6,0 -12.12,-5.285 -12.12,-13.671 v -36.946 h -12.23 v 60.813 h 11.99 v -6.602 c 3.12,4.317 9.36,7.317 16.19,7.317 5.88,0 10.32,-1.555 14.52,-5.754 l -9.24,-9.239"
         style="fill:#0979b8;fill-opacity:1;fill-rule:nonzero;stroke:none"
         id="path212" /><path
         d="m 3170.9,261.441 c -11.04,0 -12.47,-9.48 -12.47,-19.074 0,-9.597 1.43,-19.07 12.47,-19.07 11.03,0 12.35,9.473 12.35,19.07 0,9.594 -1.32,19.074 -12.35,19.074 z m -1.44,-75.918 c -9.24,0 -15.12,2.161 -21.47,8.04 l 7.8,7.792 c 3.84,-3.605 7.19,-5.402 13.18,-5.402 10.32,0 14.28,7.317 14.28,15.469 v 7.805 c -4.43,-5.286 -9.47,-6.965 -15.71,-6.965 -6.12,0 -11.16,2.043 -14.52,5.398 -5.87,5.879 -6.83,14.399 -6.83,24.707 0,10.317 0.96,18.828 6.83,24.707 3.36,3.364 8.52,5.278 14.63,5.278 6.49,0 11.4,-1.68 15.96,-7.2 v 6.485 h 11.88 v -60.449 c 0,-14.872 -9.84,-25.665 -26.03,-25.665"
         style="fill:#0979b8;fill-opacity:1;fill-rule:nonzero;stroke:none"
         id="path214" /></g></g></svg>
