<?xml version="1.0" encoding="UTF-8" standalone="no"?>
<!-- Created with Inkscape (http://www.inkscape.org/) -->

<svg
   version="1.1"
   id="svg2"
   xml:space="preserve"
   width="127.74007"
   height="63.709332"
   viewBox="0 0 127.74006 63.709332"
   sodipodi:docname="402079d3b61eece200a3f2cbe04b23ae.eps"
   xmlns:inkscape="http://www.inkscape.org/namespaces/inkscape"
   xmlns:sodipodi="http://sodipodi.sourceforge.net/DTD/sodipodi-0.dtd"
   xmlns="http://www.w3.org/2000/svg"
   xmlns:svg="http://www.w3.org/2000/svg"><defs
     id="defs6" /><sodipodi:namedview
     id="namedview4"
     pagecolor="#ffffff"
     bordercolor="#666666"
     borderopacity="1.0"
     inkscape:pageshadow="2"
     inkscape:pageopacity="0.0"
     inkscape:pagecheckerboard="0" /><g
     id="g8"
     inkscape:groupmode="layer"
     inkscape:label="ink_ext_XXXXXX"
     transform="matrix(1.3333333,0,0,-1.3333333,-6.292893e-5,63.709332)"><g
       id="g10"
       transform="scale(0.1)"><path
         d="m 311.023,368.164 c 1.622,2.344 3.059,5.039 4.68,7.383 1.621,2.344 4.141,3.066 6.121,1.445 1.086,-0.906 14.946,-12.433 28.813,-12.433 12.422,0 20.34,7.57 20.34,16.75 0,10.8 -9.356,17.644 -27.188,25.027 -18.359,7.746 -32.766,17.285 -32.766,38.176 0,14.043 10.801,33.308 39.438,33.308 17.996,0 31.504,-9.363 33.301,-10.625 1.441,-0.898 2.886,-3.425 1.082,-6.121 -1.438,-2.16 -3.059,-4.679 -4.5,-6.847 -1.438,-2.332 -3.781,-3.418 -6.301,-1.797 -1.262,0.722 -13.867,9.004 -24.309,9.004 -15.125,0 -20.347,-9.539 -20.347,-16.211 0,-10.262 7.926,-16.563 22.871,-22.684 20.887,-8.457 38.711,-18.359 38.711,-40.332 0,-18.723 -16.75,-34.023 -40.156,-34.023 -21.965,0 -35.833,11.523 -38.711,14.218 -1.622,1.446 -2.883,2.703 -1.079,5.762"
         style="fill:#0979b8;fill-opacity:1;fill-rule:nonzero;stroke:none"
         id="path12" /><path
         d="m 478.801,393.914 c -0.539,8.645 -7.746,16.027 -16.567,16.027 -9.722,0 -17.285,-7.023 -18.367,-16.027 z m -16.391,29.883 c 18.735,0 33.133,-14.043 33.133,-33.309 0,-1.261 -0.188,-3.593 -0.363,-4.855 -0.184,-1.805 -1.621,-3.067 -3.242,-3.067 h -48.969 c 0.539,-9.714 9.004,-19.265 20.703,-19.265 6.484,0 12.433,2.879 16.023,5.222 2.168,1.262 3.43,1.985 4.868,0.188 l 5.031,-6.848 c 1.261,-1.441 1.808,-2.879 -0.36,-4.675 -5.211,-4.504 -14.578,-9.004 -26.636,-9.004 -21.785,0 -36.192,17.097 -36.192,37.812 0,20.34 14.407,37.801 36.004,37.801"
         style="fill:#0979b8;fill-opacity:1;fill-rule:nonzero;stroke:none"
         id="path14" /><path
         d="m 527.914,368.164 c 1.621,2.344 3.066,5.039 4.688,7.383 1.621,2.344 4.14,3.066 6.113,1.445 1.094,-0.906 14.941,-12.433 28.808,-12.433 12.422,0 20.352,7.57 20.352,16.75 0,10.8 -9.355,17.644 -27.187,25.027 -18.36,7.746 -32.774,17.285 -32.774,38.176 0,14.043 10.801,33.308 39.434,33.308 18.007,0 31.504,-9.363 33.3,-10.625 1.446,-0.898 2.891,-3.425 1.094,-6.121 -1.445,-2.16 -3.066,-4.679 -4.512,-6.847 -1.425,-2.332 -3.769,-3.418 -6.289,-1.797 -1.269,0.722 -13.867,9.004 -24.316,9.004 -15.117,0 -20.352,-9.539 -20.352,-16.211 0,-10.262 7.93,-16.563 22.872,-22.684 20.898,-8.457 38.71,-18.359 38.71,-40.332 0,-18.723 -16.738,-34.023 -40.156,-34.023 -21.953,0 -35.82,11.523 -38.711,14.218 -1.621,1.446 -2.871,2.703 -1.074,5.762"
         style="fill:#0979b8;fill-opacity:1;fill-rule:nonzero;stroke:none"
         id="path16" /><path
         d="m 646.898,418.582 c 0,1.797 1.622,3.418 3.418,3.418 h 10.274 c 1.797,0 3.418,-1.621 3.418,-3.418 v -65.184 c 0,-1.796 -1.621,-3.418 -3.418,-3.418 h -10.274 c -1.796,0 -3.418,1.622 -3.418,3.418 z m -1.972,43.215 c 0,5.937 4.492,10.625 10.254,10.625 5.937,0 10.625,-4.688 10.625,-10.625 0,-5.762 -4.688,-10.449 -10.625,-10.449 -5.762,0 -10.254,4.687 -10.254,10.449"
         style="fill:#0979b8;fill-opacity:1;fill-rule:nonzero;stroke:none"
         id="path18" /><path
         d="m 0.488281,150.078 c 0.898439,1.309 1.699219,2.793 2.597659,4.102 0.89844,1.289 2.30469,1.699 3.39844,0.8 0.60546,-0.507 8.30082,-6.894 15.99612,-6.894 6.8945,0 11.289,4.199 11.289,9.297 0,5.996 -5.1953,9.785 -15.0898,13.887 -10.19142,4.296 -18.191419,9.589 -18.191419,21.191 0,7.793 5.996099,18.477 21.894519,18.477 9.9883,0 17.4883,-5.196 18.4844,-5.879 0.8008,-0.508 1.6016,-1.914 0.5976,-3.399 -0.8007,-1.211 -1.6992,-2.597 -2.5,-3.808 -0.7929,-1.289 -2.1015,-1.895 -3.496,-0.997 -0.6915,0.391 -7.6954,5 -13.4883,5 -8.3946,0 -11.2969,-5.292 -11.2969,-9.003 0,-5.684 4.3945,-9.2 12.6953,-12.598 11.5899,-4.688 21.4844,-10.176 21.4844,-22.383 0,-10.391 -9.2969,-18.887 -22.2852,-18.887 -12.1953,0 -19.8906,6.407 -21.48435,7.891 -0.90625,0.801 -1.601563,1.504 -0.605469,3.203"
         style="fill:#231f20;fill-opacity:1;fill-rule:nonzero;stroke:none"
         id="path20" /><path
         d="m 54.9883,178.066 c 0,0.997 0.9023,1.895 1.8984,1.895 h 5.7031 c 0.9961,0 1.8907,-0.898 1.8907,-1.895 v -20.488 c 0,-6.504 3.0976,-10 8.1953,-10 5.8984,0 9.6015,4.805 9.9023,6.602 v 23.886 c 0,1.602 0.7891,1.895 2.1992,1.895 h 5.1954 c 0.9961,0 1.8906,-0.898 1.8906,-1.895 v -36.191 c 0,-0.996 -0.8945,-1.895 -1.8906,-1.895 H 87.168 c -0.9961,0 -1.4961,0.704 -1.7969,1.602 l -0.9961,2.91 c -0.8984,-0.801 -5.0977,-5.508 -13.1953,-5.508 -11.9883,0 -16.1914,8.496 -16.1914,18.887 v 20.195"
         style="fill:#231f20;fill-opacity:1;fill-rule:nonzero;stroke:none"
         id="path22" /><path
         d="m 103.594,145.176 2.097,3.906 c 0.395,0.801 1.497,1.094 2.493,0.488 0,0 4.406,-2.597 9.296,-2.597 3,0 4.903,1.211 4.903,3.398 0,2.715 -2.195,4.004 -7.695,6.504 -6.204,2.695 -11.399,6.504 -11.399,13.086 0,5 4.106,10.996 13.691,10.996 5.598,0 9.797,-1.797 11.797,-3.086 0.903,-0.605 1.399,-1.914 0.801,-2.91 l -1.805,-3.398 c -0.5,-0.899 -1.796,-1.192 -2.597,-0.801 0,0 -4.395,2.109 -8.196,2.109 -3.394,0 -4.5,-1.504 -4.5,-3.008 0,-2.597 2.5,-3.691 6.399,-5.39 7.305,-3.203 13.301,-6.289 13.301,-13.789 0,-6.192 -5.903,-11.7 -14.797,-11.7 -6.699,0 -11.094,2.403 -13.195,4.102 -0.594,0.391 -0.997,1.289 -0.594,2.09"
         style="fill:#231f20;fill-opacity:1;fill-rule:nonzero;stroke:none"
         id="path24" /><path
         d="m 145.48,171.66 h -4.203 c -1.089,0 -1.89,0.899 -1.89,1.914 v 4.492 c 0,1.094 0.801,1.895 1.89,1.895 h 4.203 v 11.094 c 0,0.996 0.899,1.894 1.903,1.894 l 5.691,0.098 c 0.996,0 1.797,-0.899 1.797,-1.895 v -11.191 h 10.195 c 1.106,0 1.907,-0.801 1.907,-1.895 v -4.492 c 0,-1.015 -0.801,-1.914 -1.907,-1.914 h -10.195 v -19.785 c 0,-3.398 1.301,-3.984 3.203,-3.984 2.102,0 4.895,1.191 6.098,1.797 1.297,0.585 1.902,0 2.305,-0.899 l 1.793,-4.414 c 0.5,-1.094 0.097,-1.895 -0.899,-2.383 -1.004,-0.605 -6.902,-3.008 -11.695,-3.008 -7.895,0 -10.196,4.805 -10.196,11.895 v 20.781"
         style="fill:#231f20;fill-opacity:1;fill-rule:nonzero;stroke:none"
         id="path26" /><path
         d="m 190.48,146.074 c 4,0 7.79,3.008 8.993,5 v 6.406 c -0.594,0.391 -3.399,1.602 -6.993,1.602 -4.792,0 -8.093,-2.5 -8.093,-6.602 0,-3.593 2.39,-6.406 6.093,-6.406 z m 1.2,19.199 c 4.199,0 7.89,-1.21 7.89,-1.21 0.11,6.308 -1.093,8.808 -6.191,8.808 -4.602,0 -9.094,-1.211 -11.191,-1.797 -1.204,-0.312 -1.907,0.489 -2.2,1.602 l -0.8,3.691 c -0.301,1.289 0.402,1.992 1.3,2.305 0.696,0.293 6.399,2.285 13.789,2.285 12.793,0 13.993,-7.793 13.993,-17.793 v -21.289 c 0,-0.996 -0.899,-1.895 -1.903,-1.895 h -2.793 c -0.898,0 -1.301,0.411 -1.699,1.407 l -1.008,2.695 c -2.195,-2.09 -6.094,-5.098 -12.281,-5.098 -7.5,0 -12.902,5.098 -12.902,13.399 0,7.285 5.8,12.89 15.996,12.89"
         style="fill:#231f20;fill-opacity:1;fill-rule:nonzero;stroke:none"
         id="path28" /><path
         d="m 221.98,178.066 c 0,0.997 0.903,1.895 1.907,1.895 h 5.691 c 0.996,0 1.899,-0.898 1.899,-1.895 v -36.191 c 0,-0.996 -0.903,-1.895 -1.899,-1.895 h -5.691 c -1.004,0 -1.907,0.899 -1.907,1.895 z m -1.089,23.985 c 0,3.301 2.5,5.898 5.691,5.898 3.301,0 5.898,-2.597 5.898,-5.898 0,-3.203 -2.597,-5.801 -5.898,-5.801 -3.191,0 -5.691,2.598 -5.691,5.801"
         style="fill:#231f20;fill-opacity:1;fill-rule:nonzero;stroke:none"
         id="path30" /><path
         d="m 245.586,178.066 c 0,0.997 0.898,1.895 1.902,1.895 h 2.895 c 0.801,0 1.402,-0.488 1.597,-1.191 l 1.204,-3.399 c 0.703,0.801 5.996,5.586 13.996,5.586 12.183,0 16.687,-8.594 16.687,-18.984 v -20.098 c 0,-0.996 -0.898,-1.895 -1.894,-1.895 h -5.703 c -1.094,0 -1.895,0.899 -1.895,1.895 v 20.488 c 0,6.407 -3.105,9.903 -8.301,9.903 -6.289,0 -10.594,-4.59 -11.094,-5.996 v -24.395 c 0,-1.289 -0.593,-1.895 -2.292,-1.895 h -5.2 c -1.004,0 -1.902,0.899 -1.902,1.895 v 36.191"
         style="fill:#231f20;fill-opacity:1;fill-rule:nonzero;stroke:none"
         id="path32" /><path
         d="m 309.375,146.074 c 3.992,0 7.793,3.008 8.992,5 v 6.406 c -0.594,0.391 -3.394,1.602 -6.988,1.602 -4.797,0 -8.098,-2.5 -8.098,-6.602 0,-3.593 2.395,-6.406 6.094,-6.406 z m 1.199,19.199 c 4.199,0 7.895,-1.21 7.895,-1.21 0.105,6.308 -1.098,8.808 -6.196,8.808 -4.597,0 -9.089,-1.211 -11.187,-1.797 -1.203,-0.312 -1.906,0.489 -2.199,1.602 l -0.801,3.691 c -0.305,1.289 0.398,1.992 1.301,2.305 0.691,0.293 6.394,2.285 13.789,2.285 12.793,0 13.992,-7.793 13.992,-17.793 v -21.289 c 0,-0.996 -0.898,-1.895 -1.902,-1.895 h -2.793 c -0.903,0 -1.301,0.411 -1.703,1.407 l -0.997,2.695 c -2.207,-2.09 -6.101,-5.098 -12.293,-5.098 -7.5,0 -12.902,5.098 -12.902,13.399 0,7.285 5.805,12.89 15.996,12.89"
         style="fill:#231f20;fill-opacity:1;fill-rule:nonzero;stroke:none"
         id="path34" /><path
         d="m 359.871,147.578 c 6.399,0 10.598,5.703 10.598,12.402 0,6.797 -4.699,12.286 -11.399,12.286 -5.191,0 -8.687,-2.305 -8.687,-2.305 v -16.387 c 0.496,-1.094 3.387,-5.996 9.488,-5.996 z m -18.992,60.469 c 0,0.996 0.898,1.894 1.902,1.894 h 5.793 c 1.004,0 1.906,-0.898 1.906,-1.894 V 178.77 c 0.899,0.293 4.493,2.187 9.586,2.187 11.094,0 19.692,-9.297 19.692,-20.977 0,-11.503 -8.098,-20.996 -18.684,-20.996 -7.898,0 -12.695,5.606 -12.695,5.606 l -0.801,-2.91 c -0.305,-0.996 -0.898,-1.7 -1.797,-1.7 h -3 c -1.004,0 -1.902,0.899 -1.902,1.895 v 66.172"
         style="fill:#231f20;fill-opacity:1;fill-rule:nonzero;stroke:none"
         id="path36" /><path
         d="m 390.977,208.047 c 0,0.996 0.898,1.894 1.906,1.894 h 5.691 c 0.996,0 1.906,-0.898 1.906,-1.894 v -66.172 c 0,-0.996 -0.91,-1.895 -1.906,-1.895 h -5.691 c -1.008,0 -1.906,0.899 -1.906,1.895 v 66.172"
         style="fill:#231f20;fill-opacity:1;fill-rule:nonzero;stroke:none"
         id="path38" /><path
         d="m 440.77,164.375 c -0.301,4.785 -4.293,8.887 -9.2,8.887 -5.398,0 -9.59,-3.887 -10.191,-8.887 z m -9.098,16.582 c 10.398,0 18.387,-7.793 18.387,-18.477 0,-0.703 -0.098,-2.011 -0.196,-2.714 -0.097,-0.996 -0.898,-1.7 -1.797,-1.7 h -27.187 c 0.305,-5.39 5,-10.683 11.492,-10.683 3.598,0 6.899,1.601 8.899,2.89 1.203,0.704 1.894,1.114 2.695,0.098 l 2.805,-3.789 c 0.691,-0.801 0.996,-1.602 -0.207,-2.598 -2.903,-2.5 -8.094,-5 -14.786,-5 -12.097,0 -20.097,9.493 -20.097,20.996 0,11.29 8,20.977 19.992,20.977"
         style="fill:#231f20;fill-opacity:1;fill-rule:nonzero;stroke:none"
         id="path40" /><path
         d="m 487.078,208.047 c 0,0.996 0.805,1.894 1.891,1.894 h 39.98 c 1.114,0 1.895,-0.898 1.895,-1.894 v -5.606 c 0,-0.996 -0.781,-1.894 -1.895,-1.894 h -31.582 v -20.391 h 26.68 c 1.016,0 1.914,-0.898 1.914,-1.894 v -5.586 c 0,-1.113 -0.898,-1.914 -1.914,-1.914 h -26.68 v -21.485 h 31.582 c 1.114,0 1.895,-0.898 1.895,-1.894 v -5.508 c 0,-0.996 -0.781,-1.895 -1.895,-1.895 h -39.98 c -1.086,0 -1.891,0.899 -1.891,1.895 v 66.172"
         style="fill:#231f20;fill-opacity:1;fill-rule:nonzero;stroke:none"
         id="path42" /><path
         d="m 542.367,178.066 c 0,0.997 0.899,1.895 1.914,1.895 h 2.891 c 0.801,0 1.406,-0.488 1.601,-1.191 l 1.192,-3.399 c 0.703,0.801 5.996,5.586 14.004,5.586 12.187,0 16.679,-8.594 16.679,-18.984 v -20.098 c 0,-0.996 -0.898,-1.895 -1.894,-1.895 h -5.703 c -1.094,0 -1.895,0.899 -1.895,1.895 v 20.488 c 0,6.407 -3.105,9.903 -8.301,9.903 -6.289,0 -10.585,-4.59 -11.093,-5.996 v -24.395 c 0,-1.289 -0.586,-1.895 -2.285,-1.895 h -5.196 c -1.015,0 -1.914,0.899 -1.914,1.895 v 36.191"
         style="fill:#231f20;fill-opacity:1;fill-rule:nonzero;stroke:none"
         id="path44" /><path
         d="m 620.063,163.281 c 0,5.391 -3.399,9.18 -8.399,9.18 -5.098,0 -8.789,-3.789 -8.789,-9.18 0,-5.41 3.691,-9.199 8.789,-9.199 5,0 8.399,3.789 8.399,9.199 z m -8.594,-46.074 c 6.094,0 11.386,3.086 11.386,7.891 0,1.601 -0.996,5.683 -7.48,5.683 -2.91,0 -5.898,0 -8.809,-0.195 -0.586,-0.195 -5.488,-1.797 -5.488,-6.289 0,-4.102 4.297,-7.09 10.391,-7.09 z m -14.102,36.563 c 0,0 -3.086,3.71 -3.086,9.707 0,9.296 6.992,17.48 17.188,17.48 h 17.5 c 1.094,0 1.894,-0.801 1.894,-1.894 v -2.5 c 0,-0.704 -0.41,-1.602 -1.113,-1.7 l -5.488,-1.504 c 0,0 4.297,-3.183 4.297,-10.683 0,-8.496 -6.602,-16.289 -16.993,-16.289 -5.097,0 -7.89,1.601 -8.691,1.601 -0.703,0 -4.102,-1.699 -4.102,-4.902 0,-2.305 1.797,-4.102 4.805,-4.102 h 13.594 c 8.691,0 15.683,-4.687 15.683,-13.398 0,-8.789 -7.988,-16.582 -21.289,-16.582 -14.082,0 -19.785,7.187 -19.785,13.691 0,5.996 4.903,8.789 5.899,9.395 v 0.293 c -2.11,0.605 -7.403,3.301 -7.403,10 0,7.695 7.09,11.387 7.09,11.387"
         style="fill:#231f20;fill-opacity:1;fill-rule:nonzero;stroke:none"
         id="path46" /><path
         d="m 641.371,178.066 c 0,0.997 0.899,1.895 1.914,1.895 h 5.684 c 0.996,0 1.894,-0.898 1.894,-1.895 v -36.191 c 0,-0.996 -0.898,-1.895 -1.894,-1.895 h -5.684 c -1.015,0 -1.914,0.899 -1.914,1.895 z m -1.094,23.985 c 0,3.301 2.5,5.898 5.703,5.898 3.301,0 5.899,-2.597 5.899,-5.898 0,-3.203 -2.598,-5.801 -5.899,-5.801 -3.203,0 -5.703,2.598 -5.703,5.801"
         style="fill:#231f20;fill-opacity:1;fill-rule:nonzero;stroke:none"
         id="path48" /><path
         d="m 664.965,178.066 c 0,0.997 0.898,1.895 1.914,1.895 h 2.891 c 0.8,0 1.406,-0.488 1.601,-1.191 l 1.192,-3.399 c 0.703,0.801 5.996,5.586 14.003,5.586 12.188,0 16.68,-8.594 16.68,-18.984 v -20.098 c 0,-0.996 -0.898,-1.895 -1.894,-1.895 h -5.704 c -1.093,0 -1.894,0.899 -1.894,1.895 v 20.488 c 0,6.407 -3.106,9.903 -8.301,9.903 -6.289,0 -10.586,-4.59 -11.094,-5.996 v -24.395 c 0,-1.289 -0.586,-1.895 -2.285,-1.895 h -5.195 c -1.016,0 -1.914,0.899 -1.914,1.895 v 36.191"
         style="fill:#231f20;fill-opacity:1;fill-rule:nonzero;stroke:none"
         id="path50" /><path
         d="m 743.07,164.375 c -0.312,4.785 -4.297,8.887 -9.199,8.887 -5.41,0 -9.59,-3.887 -10.195,-8.887 z m -9.101,16.582 c 10.39,0 18.379,-7.793 18.379,-18.477 0,-0.703 -0.098,-2.011 -0.196,-2.714 -0.097,-0.996 -0.898,-1.7 -1.797,-1.7 h -27.187 c 0.312,-5.39 5,-10.683 11.504,-10.683 3.594,0 6.894,1.601 8.887,2.89 1.211,0.704 1.894,1.114 2.695,0.098 l 2.812,-3.789 c 0.684,-0.801 0.997,-1.602 -0.214,-2.598 -2.891,-2.5 -8.086,-5 -14.786,-5 -12.089,0 -20.097,9.493 -20.097,20.996 0,11.29 8.008,20.977 20,20.977"
         style="fill:#231f20;fill-opacity:1;fill-rule:nonzero;stroke:none"
         id="path52" /><path
         d="m 789.262,164.375 c -0.313,4.785 -4.297,8.887 -9.199,8.887 -5.411,0 -9.59,-3.887 -10.196,-8.887 z m -9.102,16.582 c 10.391,0 18.379,-7.793 18.379,-18.477 0,-0.703 -0.098,-2.011 -0.195,-2.714 -0.098,-0.996 -0.899,-1.7 -1.797,-1.7 h -27.188 c 0.313,-5.39 5,-10.683 11.504,-10.683 3.594,0 6.895,1.601 8.887,2.89 1.211,0.704 1.895,1.114 2.695,0.098 l 2.813,-3.789 c 0.683,-0.801 0.996,-1.602 -0.215,-2.598 -2.891,-2.5 -8.086,-5 -14.785,-5 -12.09,0 -20.098,9.493 -20.098,20.996 0,11.29 8.008,20.977 20,20.977"
         style="fill:#231f20;fill-opacity:1;fill-rule:nonzero;stroke:none"
         id="path54" /><path
         d="m 809.262,178.066 c 0,0.997 0.898,1.895 1.914,1.895 h 2.89 c 0.704,0 1.504,-0.606 1.7,-1.406 l 1.093,-3.399 c 0.704,1.016 4.395,5.801 11.7,5.801 3.789,0 8.398,-0.996 7.304,-3.691 l -2.402,-4.903 c -0.508,-1.093 -1.504,-1.289 -2.402,-0.898 -0.606,0.312 -2.11,0.703 -3.399,0.703 -5.801,0 -8.594,-4.199 -9.004,-4.902 v -25.391 c 0,-1.699 -1.093,-1.895 -2.695,-1.895 h -4.785 c -1.016,0 -1.914,0.899 -1.914,1.895 v 36.191"
         style="fill:#231f20;fill-opacity:1;fill-rule:nonzero;stroke:none"
         id="path56" /><path
         d="m 843.969,178.066 c 0,0.997 0.898,1.895 1.914,1.895 h 5.683 c 0.997,0 1.895,-0.898 1.895,-1.895 v -36.191 c 0,-0.996 -0.898,-1.895 -1.895,-1.895 h -5.683 c -1.016,0 -1.914,0.899 -1.914,1.895 z m -1.094,23.985 c 0,3.301 2.5,5.898 5.703,5.898 3.301,0 5.899,-2.597 5.899,-5.898 0,-3.203 -2.598,-5.801 -5.899,-5.801 -3.203,0 -5.703,2.598 -5.703,5.801"
         style="fill:#231f20;fill-opacity:1;fill-rule:nonzero;stroke:none"
         id="path58" /><path
         d="m 867.563,178.066 c 0,0.997 0.898,1.895 1.914,1.895 h 2.89 c 0.801,0 1.406,-0.488 1.602,-1.191 l 1.191,-3.399 c 0.703,0.801 5.996,5.586 14.004,5.586 12.188,0 16.68,-8.594 16.68,-18.984 v -20.098 c 0,-0.996 -0.899,-1.895 -1.895,-1.895 h -5.703 c -1.094,0 -1.894,0.899 -1.894,1.895 v 20.488 c 0,6.407 -3.106,9.903 -8.301,9.903 -6.289,0 -10.586,-4.59 -11.094,-5.996 v -24.395 c 0,-1.289 -0.586,-1.895 -2.285,-1.895 h -5.195 c -1.016,0 -1.914,0.899 -1.914,1.895 v 36.191"
         style="fill:#231f20;fill-opacity:1;fill-rule:nonzero;stroke:none"
         id="path60" /><path
         d="m 945.258,163.281 c 0,5.391 -3.399,9.18 -8.399,9.18 -5.097,0 -8.789,-3.789 -8.789,-9.18 0,-5.41 3.692,-9.199 8.789,-9.199 5,0 8.399,3.789 8.399,9.199 z m -8.594,-46.074 c 6.094,0 11.387,3.086 11.387,7.891 0,1.601 -0.996,5.683 -7.481,5.683 -2.91,0 -5.898,0 -8.808,-0.195 -0.586,-0.195 -5.489,-1.797 -5.489,-6.289 0,-4.102 4.297,-7.09 10.391,-7.09 z m -14.101,36.563 c 0,0 -3.086,3.71 -3.086,9.707 0,9.296 6.992,17.48 17.187,17.48 h 17.5 c 1.094,0 1.895,-0.801 1.895,-1.894 v -2.5 c 0,-0.704 -0.411,-1.602 -1.114,-1.7 l -5.488,-1.504 c 0,0 4.297,-3.183 4.297,-10.683 0,-8.496 -6.602,-16.289 -16.992,-16.289 -5.098,0 -7.891,1.601 -8.692,1.601 -0.703,0 -4.101,-1.699 -4.101,-4.902 0,-2.305 1.797,-4.102 4.804,-4.102 h 13.594 c 8.692,0 15.684,-4.687 15.684,-13.398 0,-8.789 -7.988,-16.582 -21.289,-16.582 -14.082,0 -19.785,7.187 -19.785,13.691 0,5.996 4.902,8.789 5.898,9.395 v 0.293 c -2.109,0.605 -7.402,3.301 -7.402,10 0,7.695 7.09,11.387 7.09,11.387"
         style="fill:#231f20;fill-opacity:1;fill-rule:nonzero;stroke:none"
         id="path62" /><path
         d="m 142.832,40.0781 c 0.898,1.3086 1.699,2.793 2.598,4.1016 0.898,1.2891 2.304,1.6992 3.398,0.8008 0.606,-0.5078 8.301,-6.8946 15.996,-6.8946 6.895,0 11.289,4.1993 11.289,9.2969 0,5.9961 -5.195,9.7852 -15.09,13.8867 -10.195,4.2969 -18.191,9.5899 -18.191,21.1914 0,7.793 5.996,18.4771 21.895,18.4771 9.992,0 17.492,-5.1958 18.488,-5.8794 0.801,-0.5078 1.598,-1.9141 0.594,-3.3984 -0.801,-1.211 -1.7,-2.5977 -2.5,-3.8086 -0.789,-1.2891 -2.098,-1.8946 -3.496,-0.9961 -0.696,0.3906 -7.696,5 -13.489,5 -8.394,0 -11.297,-5.293 -11.297,-9.0039 0,-5.6836 4.395,-9.1993 12.696,-12.5977 11.59,-4.6875 21.484,-10.1758 21.484,-22.3828 0,-10.3906 -9.297,-18.8867 -22.285,-18.8867 -12.195,0 -19.895,6.4062 -21.484,7.8906 -0.911,0.8008 -1.602,1.5039 -0.606,3.2031"
         style="fill:#231f20;fill-opacity:1;fill-rule:nonzero;stroke:none"
         id="path64" /><path
         d="m 191.941,67.3633 c -0.601,1.3086 0.2,2.5976 1.704,2.5976 h 6.589 c 0.594,0 1.399,-0.4882 1.7,-1.0937 l 12.39,-26.582 h 0.102 l 11.988,26.582 c 0.402,0.8984 1.203,1.0937 2.102,1.0937 h 5.703 c 1.594,0 2.39,-1.289 1.699,-2.5976 L 205.332,1.19141 C 205.027,0.605469 204.434,0 203.633,0 h -5.996 c -1.504,0 -2.403,1.30859 -1.699,2.69531 l 13.386,28.69139 -17.383,35.9766"
         style="fill:#231f20;fill-opacity:1;fill-rule:nonzero;stroke:none"
         id="path66" /><path
         d="m 242.336,35.1758 2.098,3.9062 c 0.39,0.8008 1.496,1.0938 2.492,0.4883 0,0 4.402,-2.5976 9.297,-2.5976 2.996,0 4.898,1.2109 4.898,3.3984 0,2.7148 -2.195,4.0039 -7.691,6.5039 -6.203,2.6953 -11.399,6.5039 -11.399,13.0859 0,5 4.102,10.9961 13.692,10.9961 5.593,0 9.797,-1.7968 11.797,-3.0859 0.898,-0.6055 1.394,-1.9141 0.8,-2.9102 l -1.804,-3.3984 c -0.5,-0.8984 -1.797,-1.1914 -2.602,-0.8008 0,0 -4.394,2.1094 -8.191,2.1094 -3.399,0 -4.5,-1.5039 -4.5,-3.0078 0,-2.5977 2.5,-3.6914 6.394,-5.3906 7.305,-3.2032 13.301,-6.2891 13.301,-13.7891 0,-6.1914 -5.898,-11.6992 -14.797,-11.6992 -6.695,0 -11.094,2.4023 -13.191,4.1015 -0.594,0.3907 -0.996,1.2891 -0.594,2.0899"
         style="fill:#231f20;fill-opacity:1;fill-rule:nonzero;stroke:none"
         id="path68" /><path
         d="m 284.23,61.6602 h -4.203 c -1.089,0 -1.89,0.8984 -1.89,1.914 v 4.4922 c 0,1.0938 0.801,1.8945 1.89,1.8945 h 4.203 v 11.0938 c 0,0.9961 0.899,1.8945 1.903,1.8945 l 5.691,0.0977 c 0.996,0 1.797,-0.8985 1.797,-1.8946 V 69.9609 h 10.195 c 1.106,0 1.907,-0.8007 1.907,-1.8945 v -4.4922 c 0,-1.0156 -0.801,-1.914 -1.907,-1.914 H 293.621 V 41.875 c 0,-3.3984 1.301,-3.9844 3.203,-3.9844 2.102,0 4.895,1.1914 6.098,1.7969 1.297,0.5859 1.902,0 2.305,-0.8984 l 1.793,-4.4141 c 0.5,-1.0937 0.097,-1.8945 -0.899,-2.3828 -1.004,-0.6055 -6.902,-3.0078 -11.695,-3.0078 -7.895,0 -10.196,4.8047 -10.196,11.8945 v 20.7813"
         style="fill:#231f20;fill-opacity:1;fill-rule:nonzero;stroke:none"
         id="path70" /><path
         d="m 343.516,54.375 c -0.301,4.7852 -4.297,8.8867 -9.2,8.8867 -5.398,0 -9.589,-3.8867 -10.195,-8.8867 z m -9.102,16.582 c 10.399,0 18.391,-7.7929 18.391,-18.4765 0,-0.7032 -0.102,-2.0117 -0.2,-2.7149 -0.093,-0.9961 -0.894,-1.6992 -1.792,-1.6992 h -27.192 c 0.305,-5.3906 5,-10.6836 11.496,-10.6836 3.594,0 6.895,1.6016 8.899,2.8906 1.199,0.7032 1.89,1.1133 2.695,0.0977 l 2.801,-3.7891 c 0.691,-0.8007 0.996,-1.6015 -0.203,-2.5976 -2.903,-2.5 -8.098,-5 -14.789,-5 -12.098,0 -20.094,9.4922 -20.094,20.9961 0,11.289 7.996,20.9765 19.988,20.9765"
         style="fill:#231f20;fill-opacity:1;fill-rule:nonzero;stroke:none"
         id="path72" /><path
         d="m 363.523,68.0664 c 0,0.9961 0.903,1.8945 1.907,1.8945 h 2.793 c 0.898,0 1.406,-0.4882 1.699,-1.1914 l 1.101,-3.3984 c 0.903,0.8984 5.5,5.5859 13.196,5.5859 5.793,0 9.992,-2.2851 12.89,-6.3867 1.106,1.0938 6.895,6.3867 14.493,6.3867 12.199,0 16.496,-8.5937 16.496,-18.9843 V 31.875 c 0,-0.9961 -0.801,-1.8945 -1.907,-1.8945 h -5.593 c -1.106,0 -1.899,0.8984 -1.899,1.8945 v 20.4883 c 0,6.3086 -2.898,9.9023 -8.301,9.9023 -6.089,0 -9.585,-4.2968 -10.293,-4.9023 0.2,-0.8985 0.305,-2.793 0.305,-4.7852 V 31.875 c 0,-0.9961 -0.898,-1.8945 -1.902,-1.8945 h -5.293 c -1.106,0 -1.906,0.8984 -1.906,1.8945 v 20.4883 c 0,6.4062 -2.891,9.9023 -8.496,9.9023 -5.997,0 -9.395,-4.6875 -9.891,-5.9961 V 31.875 c 0,-0.9961 -0.902,-1.8945 -1.899,-1.8945 h -5.593 c -1.004,0 -1.907,0.8984 -1.907,1.8945 v 36.1914"
         style="fill:#231f20;fill-opacity:1;fill-rule:nonzero;stroke:none"
         id="path74" /><path
         d="m 439.336,35.1758 2.102,3.9062 c 0.386,0.8008 1.492,1.0938 2.488,0.4883 0,0 4.402,-2.5976 9.297,-2.5976 3,0 4.902,1.2109 4.902,3.3984 0,2.7148 -2.195,4.0039 -7.695,6.5039 -6.2,2.6953 -11.399,6.5039 -11.399,13.0859 0,5 4.106,10.9961 13.696,10.9961 5.593,0 9.793,-1.7968 11.793,-3.0859 0.902,-0.6055 1.398,-1.9141 0.8,-2.9102 l -1.804,-3.3984 c -0.496,-0.8984 -1.797,-1.1914 -2.598,-0.8008 0,0 -4.395,2.1094 -8.191,2.1094 -3.403,0 -4.504,-1.5039 -4.504,-3.0078 0,-2.5977 2.5,-3.6914 6.394,-5.3906 7.309,-3.2032 13.305,-6.2891 13.305,-13.7891 0,-6.1914 -5.902,-11.6992 -14.797,-11.6992 -6.699,0 -11.094,2.4023 -13.191,4.1015 -0.598,0.3907 -0.996,1.2891 -0.598,2.0899"
         style="fill:#231f20;fill-opacity:1;fill-rule:nonzero;stroke:none"
         id="path76" /><path
         d="m 504.926,98.0469 c 0,0.9961 0.898,1.8945 1.894,1.8945 h 6.602 c 0.996,0 1.894,-0.8984 1.894,-1.8945 V 31.875 c 0,-0.9961 -0.898,-1.8945 -1.894,-1.8945 h -6.602 c -0.996,0 -1.894,0.8984 -1.894,1.8945 v 66.1719"
         style="fill:#231f20;fill-opacity:1;fill-rule:nonzero;stroke:none"
         id="path78" /><path
         d="m 531.215,68.0664 c 0,0.9961 0.898,1.8945 1.914,1.8945 h 2.891 c 0.8,0 1.406,-0.4882 1.601,-1.1914 l 1.192,-3.3984 c 0.703,0.8008 5.996,5.5859 14.003,5.5859 12.188,0 16.68,-8.5937 16.68,-18.9843 V 31.875 c 0,-0.9961 -0.898,-1.8945 -1.894,-1.8945 h -5.704 c -1.093,0 -1.894,0.8984 -1.894,1.8945 v 20.4883 c 0,6.4062 -3.106,9.9023 -8.301,9.9023 -6.289,0 -10.586,-4.5898 -11.094,-5.9961 V 31.875 c 0,-1.2891 -0.586,-1.8945 -2.285,-1.8945 h -5.195 c -1.016,0 -1.914,0.8984 -1.914,1.8945 v 36.1914"
         style="fill:#231f20;fill-opacity:1;fill-rule:nonzero;stroke:none"
         id="path80" /><path
         d="m 580.727,35.1758 2.109,3.9062 c 0.391,0.8008 1.484,1.0938 2.48,0.4883 0,0 4.414,-2.5976 9.297,-2.5976 3.008,0 4.903,1.2109 4.903,3.3984 0,2.7148 -2.188,4.0039 -7.696,6.5039 -6.191,2.6953 -11.386,6.5039 -11.386,13.0859 0,5 4.101,10.9961 13.691,10.9961 5.586,0 9.785,-1.7968 11.797,-3.0859 0.898,-0.6055 1.387,-1.9141 0.801,-2.9102 l -1.817,-3.3984 c -0.488,-0.8984 -1.797,-1.1914 -2.597,-0.8008 0,0 -4.395,2.1094 -8.184,2.1094 -3.398,0 -4.512,-1.5039 -4.512,-3.0078 0,-2.5977 2.5,-3.6914 6.407,-5.3906 7.304,-3.2032 13.3,-6.2891 13.3,-13.7891 0,-6.1914 -5.898,-11.6992 -14.804,-11.6992 -6.7,0 -11.094,2.4023 -13.184,4.1015 -0.605,0.3907 -0.996,1.2891 -0.605,2.0899"
         style="fill:#231f20;fill-opacity:1;fill-rule:nonzero;stroke:none"
         id="path82" /><path
         d="m 622.621,61.6602 h -4.199 c -1.094,0 -1.895,0.8984 -1.895,1.914 v 4.4922 c 0,1.0938 0.801,1.8945 1.895,1.8945 h 4.199 v 11.0938 c 0,0.9961 0.899,1.8945 1.895,1.8945 l 5.703,0.0977 c 0.996,0 1.797,-0.8985 1.797,-1.8946 V 69.9609 h 10.195 c 1.094,0 1.894,-0.8007 1.894,-1.8945 v -4.4922 c 0,-1.0156 -0.8,-1.914 -1.894,-1.914 H 632.016 V 41.875 c 0,-3.3984 1.289,-3.9844 3.203,-3.9844 2.09,0 4.883,1.1914 6.094,1.7969 1.289,0.5859 1.894,0 2.304,-0.8984 l 1.797,-4.4141 c 0.488,-1.0937 0.098,-1.8945 -0.898,-2.3828 -1.016,-0.6055 -6.914,-3.0078 -11.7,-3.0078 -7.89,0 -10.195,4.8047 -10.195,11.8945 v 20.7813"
         style="fill:#231f20;fill-opacity:1;fill-rule:nonzero;stroke:none"
         id="path84" /><path
         d="m 655.727,68.0664 c 0,0.9961 0.898,1.8945 1.894,1.8945 h 5.703 c 0.996,0 1.895,-0.8984 1.895,-1.8945 V 31.875 c 0,-0.9961 -0.899,-1.8945 -1.895,-1.8945 h -5.703 c -0.996,0 -1.894,0.8984 -1.894,1.8945 z m -1.094,23.9844 c 0,3.3008 2.5,5.8984 5.683,5.8984 3.301,0 5.899,-2.5976 5.899,-5.8984 0,-3.2031 -2.598,-5.8008 -5.899,-5.8008 -3.183,0 -5.683,2.5977 -5.683,5.8008"
         style="fill:#231f20;fill-opacity:1;fill-rule:nonzero;stroke:none"
         id="path86" /><path
         d="m 681.918,61.6602 h -4.199 c -1.094,0 -1.895,0.8984 -1.895,1.914 v 4.4922 c 0,1.0938 0.801,1.8945 1.895,1.8945 h 4.199 v 11.0938 c 0,0.9961 0.898,1.8945 1.895,1.8945 l 5.703,0.0977 c 0.996,0 1.797,-0.8985 1.797,-1.8946 V 69.9609 h 10.195 c 1.094,0 1.894,-0.8007 1.894,-1.8945 v -4.4922 c 0,-1.0156 -0.8,-1.914 -1.894,-1.914 H 691.313 V 41.875 c 0,-3.3984 1.289,-3.9844 3.203,-3.9844 2.089,0 4.882,1.1914 6.093,1.7969 1.289,0.5859 1.895,0 2.305,-0.8984 l 1.797,-4.4141 c 0.488,-1.0937 0.098,-1.8945 -0.898,-2.3828 -1.016,-0.6055 -6.915,-3.0078 -11.7,-3.0078 -7.89,0 -10.195,4.8047 -10.195,11.8945 v 20.7813"
         style="fill:#231f20;fill-opacity:1;fill-rule:nonzero;stroke:none"
         id="path88" /><path
         d="m 714.418,68.0664 c 0,0.9961 0.898,1.8945 1.895,1.8945 h 5.703 c 0.996,0 1.894,-0.8984 1.894,-1.8945 V 47.5781 c 0,-6.5039 3.106,-10 8.203,-10 5.899,0 9.59,4.8047 9.903,6.6016 v 23.8867 c 0,1.6016 0.781,1.8945 2.187,1.8945 h 5.195 c 0.997,0 1.895,-0.8984 1.895,-1.8945 V 31.875 c 0,-0.9961 -0.898,-1.8945 -1.895,-1.8945 h -2.793 c -0.996,0 -1.503,0.7031 -1.796,1.6015 l -0.996,2.9102 c -0.899,-0.8008 -5.098,-5.5078 -13.204,-5.5078 -11.992,0 -16.191,8.4961 -16.191,18.8867 v 20.1953"
         style="fill:#231f20;fill-opacity:1;fill-rule:nonzero;stroke:none"
         id="path90" /><path
         d="m 768.012,61.6602 h -4.199 c -1.094,0 -1.895,0.8984 -1.895,1.914 v 4.4922 c 0,1.0938 0.801,1.8945 1.895,1.8945 h 4.199 v 11.0938 c 0,0.9961 0.898,1.8945 1.914,1.8945 l 5.683,0.0977 c 0.996,0 1.797,-0.8985 1.797,-1.8946 V 69.9609 h 10.196 c 1.113,0 1.914,-0.8007 1.914,-1.8945 v -4.4922 c 0,-1.0156 -0.801,-1.914 -1.914,-1.914 H 777.406 V 41.875 c 0,-3.3984 1.309,-3.9844 3.203,-3.9844 2.11,0 4.903,1.1914 6.094,1.7969 1.309,0.5859 1.914,0 2.305,-0.8984 l 1.797,-4.4141 c 0.508,-1.0937 0.097,-1.8945 -0.899,-2.3828 -0.996,-0.6055 -6.894,-3.0078 -11.699,-3.0078 -7.891,0 -10.195,4.8047 -10.195,11.8945 v 20.7813"
         style="fill:#231f20;fill-opacity:1;fill-rule:nonzero;stroke:none"
         id="path92" /><path
         d="m 827.309,54.375 c -0.293,4.7852 -4.297,8.8867 -9.2,8.8867 -5.39,0 -9.589,-3.8867 -10.195,-8.8867 z m -9.102,16.582 c 10.41,0 18.398,-7.7929 18.398,-18.4765 0,-0.7032 -0.097,-2.0117 -0.195,-2.7149 -0.097,-0.9961 -0.898,-1.6992 -1.797,-1.6992 h -27.187 c 0.293,-5.3906 5,-10.6836 11.484,-10.6836 3.594,0 6.895,1.6016 8.906,2.8906 1.192,0.7032 1.895,1.1133 2.696,0.0977 l 2.793,-3.7891 c 0.703,-0.8007 0.996,-1.6015 -0.196,-2.5976 -2.91,-2.5 -8.105,-5 -14.785,-5 -12.109,0 -20.097,9.4922 -20.097,20.9961 0,11.289 7.988,20.9765 19.98,20.9765"
         style="fill:#231f20;fill-opacity:1;fill-rule:nonzero;stroke:none"
         id="path94" /><path
         d="M 323.004,276.102 H 655.746"
         style="fill:none;stroke:#0979b8;stroke-width:10;stroke-linecap:butt;stroke-linejoin:miter;stroke-miterlimit:4;stroke-dasharray:none;stroke-opacity:1"
         id="path96" /></g></g></svg>
